<svg width="24.000000" height="24.000000" viewBox="0 0 24 24" fill="none" xmlns="http://www.w3.org/2000/svg">
	<desc>
			Created with Pixso.
	</desc>
	<defs>
		<clipPath id="clip25_3665">
			<rect id="Frame" width="24.000000" height="24.000000" fill="white" fill-opacity="0"/>
		</clipPath>
	</defs>
	<rect id="Frame" width="24.000000" height="24.000000" fill="#FFFFFF" fill-opacity="0"/>
	<g clip-path="url(#clip25_3665)">
		<path id="Vector" d="M22.6157 6.47339L7.125 5.55103L7.125 5.03516C7.125 4.0813 6.35889 3.29053 5.40527 3.29053L4.875 3.29053L4.875 2.68506C4.87305 2.60889 4.8418 2.53687 4.78711 2.48364C4.73291 2.43042 4.66016 2.40039 4.58398 2.3999L0.271484 2.3999C0.234863 2.40063 0.19873 2.40845 0.165527 2.42334C0.131836 2.43799 0.101562 2.45923 0.0761719 2.4856C0.0512695 2.51221 0.03125 2.54346 0.0180664 2.57764C0.00537109 2.61182 -0.000976562 2.64844 0 2.68506L0 4.45312C-0.00244141 4.52759 0.0249023 4.6001 0.0756836 4.65454C0.126465 4.70898 0.197266 4.74097 0.271484 4.74365L4.58398 4.74365C4.66064 4.74194 4.7334 4.71069 4.7876 4.65649C4.8418 4.60254 4.87305 4.52954 4.875 4.45312L4.875 3.85303L5.40527 3.85303C6.04883 3.85303 6.5625 4.3916 6.5625 5.03516L6.5625 17.1584C6.56445 17.6479 6.73193 18.1223 7.03809 18.5042C7.34424 18.8862 7.771 19.1531 8.24854 19.2612C8.03809 19.4426 7.87646 19.6741 7.77881 19.9341C7.68115 20.1943 7.65039 20.4749 7.68945 20.75C7.72852 21.0249 7.83594 21.2859 8.00195 21.5088C8.16748 21.7317 8.38721 21.9092 8.63965 22.0251C8.89209 22.1414 9.16943 22.1921 9.44678 22.1729C9.72412 22.1538 9.9917 22.0654 10.2261 21.9158C10.46 21.7661 10.6528 21.5601 10.7866 21.3167C10.9204 21.0732 10.9912 20.7998 10.9917 20.522C10.9917 20.0483 10.7925 19.603 10.4731 19.3218L18.4717 19.3218C18.1523 19.603 17.9521 20.0483 17.9521 20.522C17.9521 20.9619 18.127 21.384 18.438 21.6951C18.7485 22.0063 19.1709 22.1812 19.6108 22.1814C20.0508 22.1814 20.4727 22.0068 20.7837 21.6958C21.0947 21.3848 21.27 20.9629 21.27 20.5229C21.27 20.0493 21.0698 19.603 20.7505 19.3218L21.04 19.3218C21.1143 19.3218 21.186 19.292 21.2388 19.2393C21.2915 19.1865 21.3213 19.115 21.3213 19.0405C21.3213 18.9658 21.2915 18.8943 21.2388 18.8416C21.186 18.7888 21.1143 18.7593 21.04 18.7593L8.72852 18.7593C8.30469 18.7576 7.89795 18.5884 7.59766 18.2886C7.29736 17.9888 7.12744 17.5828 7.125 17.1584L7.125 16.3621L20.9399 15.1479C21.4717 15.0952 21.9644 14.8462 22.3223 14.4497C22.6802 14.053 22.8774 13.5371 22.875 13.0029L22.875 6.75391C22.8765 6.68286 22.8501 6.61401 22.8018 6.56177C22.7529 6.50952 22.6865 6.47778 22.6157 6.47339ZM4.3125 4.18115L0.5625 4.18115L0.5625 2.9624L4.3125 2.9624L4.3125 4.18115ZM19.6108 19.4221C19.8281 19.4221 20.04 19.4863 20.2202 19.6069C20.4004 19.7273 20.541 19.8987 20.624 20.0989C20.707 20.2993 20.7285 20.5198 20.6865 20.7324C20.644 20.9451 20.5396 21.1404 20.3862 21.2937C20.2329 21.447 20.0376 21.5515 19.8252 21.5938C19.6123 21.636 19.3916 21.6143 19.1914 21.5315C18.9912 21.4485 18.8198 21.3079 18.6997 21.1277C18.5791 20.9473 18.5146 20.7354 18.5146 20.5186C18.5151 20.2278 18.6309 19.9492 18.8359 19.7437C19.0415 19.5381 19.3203 19.4224 19.6108 19.4221ZM9.3335 19.4221C9.55029 19.4221 9.76221 19.4863 9.94287 19.6069C10.123 19.7273 10.2637 19.8987 10.3467 20.0989C10.4297 20.2993 10.4512 20.5198 10.4087 20.7324C10.3667 20.9451 10.2622 21.1404 10.1089 21.2937C9.95557 21.447 9.76025 21.5515 9.54736 21.5938C9.33496 21.636 9.11426 21.6143 8.91406 21.5315C8.71387 21.4485 8.54248 21.3079 8.42188 21.1277C8.30176 20.9473 8.2373 20.7354 8.2373 20.5186C8.2373 20.2278 8.35303 19.9492 8.55859 19.7437C8.76416 19.5381 9.04297 19.4224 9.3335 19.4221ZM9 15.6321L7.125 15.7971L7.125 8.271L9 8.38281L9 15.6321ZM14.625 15.1379L12.375 15.3354L12.375 8.58374L14.625 8.71777L14.625 15.1379ZM17.4375 14.8909L15.1875 15.0884L15.1875 8.75098L17.4375 8.88501L17.4375 14.8909ZM19.7812 14.6851L18 14.8413L18 8.91846L19.7812 9.02466L19.7812 14.6851ZM22.3125 13.0029C22.314 13.3977 22.168 13.7786 21.9038 14.0715C21.6396 14.3645 21.2759 14.5488 20.8833 14.5884L20.3438 14.6355L20.3438 9.05811L22.3125 9.17529L22.3125 13.0029ZM22.3125 8.61182L11.7305 7.97998C11.6548 7.979 11.5815 8.00757 11.5264 8.05957C11.4712 8.11182 11.4385 8.18335 11.4355 8.25928L11.4365 8.25928C11.437 8.33032 11.4639 8.39868 11.5117 8.45093C11.5601 8.50317 11.626 8.5354 11.6968 8.5415L11.813 8.55029L11.813 15.385L9.56299 15.5825L9.56299 8.41626L9.82227 8.4314C9.86084 8.43384 9.89941 8.42822 9.93555 8.41528C9.97168 8.40234 10.0049 8.38208 10.0332 8.35571C10.061 8.32935 10.0835 8.29761 10.0991 8.26245C10.1143 8.22729 10.1226 8.18921 10.123 8.15088C10.123 8.0791 10.0962 8.01025 10.0469 7.95801C9.99805 7.90576 9.93115 7.87427 9.85938 7.86987L7.125 7.70728L7.125 6.11475L22.3125 7.01904L22.3125 8.61182Z" fill="#290247" fill-opacity="1.000000" fill-rule="nonzero"/>
		<path id="Vector" d="M8.80225 7.35425L9.09668 7.36963C9.10205 7.36987 9.10693 7.37012 9.11182 7.37012C9.18506 7.36987 9.25537 7.34131 9.30811 7.29004C9.36035 7.23901 9.39062 7.16919 9.39258 7.09595C9.39453 7.02271 9.36768 6.95142 9.31787 6.89771C9.26807 6.84399 9.19922 6.81177 9.12598 6.80786L8.83154 6.79248C8.79443 6.79028 8.75684 6.79517 8.72168 6.80737C8.68652 6.81958 8.6543 6.83838 8.62646 6.86328C8.59863 6.88794 8.57617 6.91797 8.56006 6.95142C8.54395 6.98511 8.53467 7.02148 8.53271 7.05859C8.53076 7.0957 8.53613 7.13306 8.54883 7.16797C8.56104 7.20312 8.58057 7.23535 8.60547 7.2627C8.63086 7.29028 8.66113 7.3125 8.69482 7.32812C8.72852 7.34399 8.76514 7.35278 8.80225 7.35425ZM9.98633 7.41602L13.5439 7.60107C13.5493 7.60107 13.5542 7.60132 13.5591 7.60132C13.6323 7.60132 13.7026 7.57275 13.7554 7.52148C13.8076 7.47021 13.8379 7.40063 13.8398 7.32739C13.8418 7.25415 13.8149 7.18286 13.7651 7.12915C13.7153 7.0752 13.6465 7.04297 13.5732 7.03931L10.0156 6.85425C9.94092 6.85034 9.86816 6.87622 9.8125 6.92603C9.75732 6.97607 9.72412 7.0459 9.72021 7.12036C9.71631 7.19482 9.74219 7.26782 9.79199 7.32324C9.8418 7.37866 9.91162 7.41211 9.98633 7.41602Z" fill="#290247" fill-opacity="1.000000" fill-rule="nonzero"/>
	</g>
</svg>
