<svg width="16" height="16" xmlns="http://www.w3.org/2000/svg" fill="none">
 <desc>Created with Pixso.</desc>
 <defs>
  <clipPath id="clip25_3937">
   <rect transform="rotate(180 16 16)" x="16" y="16" fill-opacity="0" fill="white" height="16" width="16" id="Frame"/>
  </clipPath>
 </defs>
 <g>
  <title>Слой 1</title>
  <rect transform="rotate(180 16 16)" x="16" y="16" fill-opacity="0" fill="#FFFFFF" height="16" width="16" id="Frame"/>
  <g id="svg_1" clip-path="url(#clip25_3937)">
   <path fill-rule="nonzero" fill="#290247" d="m0.68,5.12c-0.32,0.42 -0.48,0.86 -0.46,1.33c0.02,0.5 0.25,0.9 0.43,1.15c-0.21,0.54 -0.3,1.39 0.43,2.05c0.53,0.49 1.44,0.71 2.69,0.65c0.88,-0.04 1.61,-0.21 1.64,-0.21l0.01,0c0.16,-0.03 0.34,-0.07 0.52,-0.11c0.01,0.21 -0.02,0.75 -0.42,1.94c-0.47,1.43 -0.44,2.52 0.09,3.25c0.56,0.76 1.44,0.83 1.7,0.83c0.25,0 0.48,-0.11 0.65,-0.3c0.37,-0.43 0.33,-1.23 0.28,-1.6c0.44,-1.18 1.68,-4.08 2.73,-4.89c0.02,-0.01 0.03,-0.03 0.05,-0.05c0.31,-0.32 0.52,-0.67 0.66,-0.98c0.19,0.11 0.42,0.17 0.66,0.17l2.04,0c0.77,0 1.39,-0.63 1.39,-1.4l0,-5.43c0,-0.77 -0.62,-1.39 -1.39,-1.39l-2.04,0c-0.3,0 -0.58,0.09 -0.8,0.25l-0.79,-0.09c-0.12,-0.02 -2.26,-0.29 -4.46,-0.25c-0.4,-0.03 -0.77,-0.04 -1.12,-0.04c-0.6,0 -1.12,0.04 -1.56,0.14c-1.02,0.21 -1.72,0.65 -2.08,1.29c-0.27,0.49 -0.27,0.97 -0.22,1.28c-0.67,0.6 -0.79,1.27 -0.76,1.74c0.01,0.27 0.07,0.5 0.13,0.67zm13.7,-4.09c0.27,0 0.49,0.22 0.49,0.49l0,5.44c0,0.27 -0.22,0.49 -0.49,0.49l-2.04,0c-0.27,0 -0.49,-0.22 -0.49,-0.49l0,-5.44c0,-0.27 0.22,-0.49 0.49,-0.49l2.04,0l0,0zm-12.84,4.48c0.14,-0.15 0.17,-0.37 0.06,-0.55c0,0 -0.14,-0.23 -0.15,-0.56c-0.03,-0.43 0.19,-0.82 0.63,-1.15c0.15,-0.12 0.22,-0.33 0.15,-0.52c0,0 -0.14,-0.44 0.09,-0.86c0.23,-0.4 0.72,-0.69 1.48,-0.85c0.61,-0.13 1.43,-0.15 2.44,-0.07l0.05,0c2.15,-0.05 4.32,0.23 4.35,0.23l0,0l0.34,0.04c-0.02,0.1 -0.03,0.2 -0.03,0.3l0,5.44c0,0.14 0.02,0.28 0.06,0.41c-0.06,0.23 -0.23,0.73 -0.62,1.15c-1.5,1.19 -2.97,5.21 -3.04,5.38c-0.02,0.07 -0.03,0.15 -0.02,0.23c0.06,0.37 0.04,0.83 -0.04,0.97c-0.18,0 -0.66,-0.06 -0.94,-0.45c-0.35,-0.48 -0.33,-1.32 0.04,-2.44c0.56,-1.7 0.61,-2.6 0.16,-2.99c-0.22,-0.2 -0.51,-0.21 -0.73,-0.13c-0.2,0.05 -0.4,0.09 -0.58,0.12c-0.02,0 -0.03,0 -0.04,0.01c-1.03,0.22 -2.87,0.36 -3.51,-0.22c-0.54,-0.5 -0.16,-1.16 -0.12,-1.23c0.13,-0.18 0.09,-0.43 -0.08,-0.58c0,0 -0.35,-0.33 -0.37,-0.78c-0.01,-0.3 0.13,-0.6 0.42,-0.9z" id="Vector"/>
  </g>
  <path d="m12.0625,1.125c-0.0625,0 -0.0625,0.0625 -0.0625,0.125c0,0.0625 0,0.125 0,0.1875c0,0.0625 0,0.1875 0,0.25c0,0.125 0,0.1875 0,0.25c0,0.125 0.02868,0.23084 0.0625,0.3125c0.02392,0.05774 -0.02392,0.12976 0,0.1875c0.03382,0.08166 0.03858,0.12976 0.0625,0.1875c0.03382,0.08166 0.0625,0.125 0.0625,0.1875c0,0.0625 0,0.125 0,0.1875c0,0.0625 0.0625,0.125 0.0625,0.1875c0,0.0625 0,0.125 0,0.1875c0,0.0625 0,0.125 0,0.1875c0,0.125 0,0.1875 0,0.25c0,0.125 0.02392,0.25476 0,0.3125c-0.03382,0.08166 -0.0625,0.125 -0.0625,0.1875c0,0.0625 0.02872,0.12834 0,0.25c-0.03211,0.13602 -0.0625,0.1875 -0.0625,0.25c0,0.0625 0,0.125 0,0.1875c0,0.0625 0,0.125 0,0.1875c0,0.0625 0,0.125 0,0.1875c0,0.0625 0,0.25 0,0.375c0,0.0625 0.0625,0.1875 0.0625,0.25c0,0.125 0.03039,0.23898 0.0625,0.375c0.01436,0.06083 0,0.125 0,0.1875c0,0.0625 0,0.125 0,0.1875c0,0.0625 -0.04419,0.14331 0,0.1875c0.04419,0.04419 0.10108,0.00476 0.125,0.0625c0.03382,0.08166 0.125,0.0625 0.1875,0.0625c0.125,0 0.16834,0.02868 0.25,0.0625c0.05774,0.02392 0.125,0 0.1875,0c0.0625,0 0.125,0 0.1875,0c0.0625,0 0.10584,0.02868 0.1875,0.0625c0.05774,0.02392 0.125,0 0.1875,0c0.0625,0 0.125,0 0.1875,0c0.0625,0 0.125,0 0.1875,0c0.0625,0 0.125,0 0.1875,0c0.0625,0 0.12667,-0.01436 0.1875,0c0.13602,0.03211 0.1875,0.0625 0.25,0.0625c0.0625,0 0.15368,0.01916 0.1875,-0.0625c0.02392,-0.05774 0.09118,-0.10584 0.125,-0.1875c0.02392,-0.05774 0,-0.125 0,-0.1875c0,-0.0625 0.04419,-0.14331 0,-0.1875c-0.04419,-0.04419 -0.04334,-0.09118 -0.125,-0.125c-0.05774,-0.02392 -0.125,0 -0.1875,0c-0.0625,0 -0.125,0 -0.1875,0c-0.0625,0 -0.125,0 -0.1875,0c-0.0625,0 -0.125,0 -0.1875,0c-0.0625,0 -0.11398,0.03039 -0.25,0.0625c-0.06083,0.01436 -0.125,0 -0.1875,0c-0.0625,0 -0.10584,-0.02868 -0.1875,-0.0625c-0.05774,-0.02392 -0.10584,-0.02868 -0.1875,-0.0625c-0.05774,-0.02392 -0.125,-0.0625 -0.125,-0.125c0,-0.0625 -0.04419,-0.14331 0,-0.1875c0.04419,-0.04419 0.12976,0.02392 0.1875,0c0.08166,-0.03382 0.125,-0.125 0.1875,-0.125c0.125,0 0.1875,0 0.25,0c0.0625,0 0.125,0 0.1875,0c0.0625,0 0.125,0 0.1875,0c0.0625,0 0.125,0 0.25,0c0.0625,0 0.1875,-0.0625 0.25,-0.0625c0.0625,0 0.1875,0 0.25,0c0.0625,0 0.13936,-0.00167 0.125,-0.0625c-0.03211,-0.13602 -0.0625,-0.1875 -0.0625,-0.25c0,-0.0625 -0.01466,-0.07201 -0.0625,-0.1875c-0.03382,-0.08166 -0.10584,-0.09118 -0.1875,-0.125c-0.05774,-0.02392 -0.125,0 -0.1875,0c-0.0625,0 -0.125,0 -0.1875,0c-0.0625,0 -0.125,0 -0.1875,0c-0.0625,0 -0.125,0 -0.1875,0c-0.0625,0 -0.0625,0.0625 -0.125,0.0625c-0.0625,0 -0.125,0 -0.1875,0c-0.0625,0 -0.125,0 -0.1875,0c-0.0625,0 -0.125,0 -0.1875,0c-0.0625,0 -0.125,0 -0.1875,0c-0.0625,0 -0.10584,0.09632 -0.1875,0.0625c-0.05774,-0.02392 0,-0.125 0,-0.1875c0,-0.0625 0,-0.125 0,-0.1875c0,-0.125 0,-0.1875 0,-0.25c0,-0.125 -0.01436,-0.18917 0,-0.25c0.03211,-0.13602 0.0625,-0.1875 0.0625,-0.25c0,-0.0625 0,-0.125 0,-0.1875c0,-0.0625 0,-0.125 0,-0.1875c0,-0.0625 -0.01436,-0.12667 0,-0.1875c0.03211,-0.13602 0.125,-0.1875 0.125,-0.25c0,-0.125 0,-0.1875 0,-0.25c0,-0.0625 0,-0.125 0,-0.25c0,-0.0625 0,-0.1875 0,-0.3125c0,-0.125 -0.03858,-0.19226 -0.0625,-0.25c-0.03382,-0.08166 -0.0625,-0.125 -0.0625,-0.1875c0,-0.0625 -0.03039,-0.11398 -0.0625,-0.25c-0.01436,-0.06083 -0.0625,-0.125 -0.0625,-0.1875c0,-0.0625 0,-0.125 0,-0.1875c0,-0.0625 -0.02392,-0.12976 0,-0.1875c0.03382,-0.08166 0.125,-0.0625 0.1875,-0.0625c0.125,0 0.1875,0 0.25,0c0.0625,0 0.125,0 0.1875,0c0.0625,0 0.125,0 0.1875,0c0.0625,0 0.125,0 0.1875,0c0.0625,0 0.1875,0 0.25,0c0.0625,0 0.125,0 0.1875,0c0.0625,0 0.125,0 0.1875,0c0.0625,0 0.125,0 0.1875,0c0.0625,0 0.0625,0.0625 0.0625,0.125c0,0.0625 0,0.125 0,0.1875c0,0.0625 0.0625,0.1875 0.0625,0.25c0,0.0625 0.02868,0.10584 0.0625,0.1875c0.02392,0.05774 0,0.125 0,0.1875c0,0.0625 0,0.125 0,0.25c0,0.0625 0,0.125 0,0.1875c0,0.0625 0,0.125 0,0.1875c0,0.0625 0,0.125 0,0.1875c0,0.0625 0,0.125 0,0.1875c0,0.0625 0,0.125 0,0.1875c0,0.0625 0.03039,0.11398 0.0625,0.25c0.01436,0.06083 0.0625,0.1875 0.0625,0.25c0,0.0625 0,0.125 0,0.1875c0,0.0625 0,0.125 0,0.1875c0,0.0625 0,0.125 0,0.1875c0,0.0625 0.04419,0.14331 0,0.1875c-0.04419,0.04419 -0.125,0 -0.1875,0c-0.0625,0 -0.125,0.0625 -0.1875,0.0625c-0.0625,0 -0.125,0 -0.1875,0c-0.0625,0 -0.125,0 -0.1875,0c-0.0625,0 -0.125,0 -0.1875,0c-0.125,0 -0.14331,-0.08081 -0.1875,-0.125c-0.04419,-0.04419 -0.10584,-0.02868 -0.1875,-0.0625c-0.05774,-0.02392 -0.125,-0.0625 -0.125,-0.125c0,-0.0625 0,-0.125 0,-0.1875c0,-0.0625 -0.04784,-0.13452 0,-0.25c0.03382,-0.08166 0.09118,-0.16834 0.125,-0.25c0.02392,-0.05774 0,-0.125 0,-0.1875c0,-0.0625 0,-0.125 0,-0.1875c0,-0.0625 0,-0.125 0.0625,-0.1875c0.0625,-0.0625 0.04328,-0.13663 0.125,-0.25c0.05168,-0.0717 0.09118,-0.10584 0.125,-0.1875c0.02392,-0.05774 0.02868,-0.10584 0.0625,-0.1875c0.02392,-0.05774 0,-0.125 0,-0.1875c0,-0.0625 -0.03858,-0.06726 -0.0625,-0.125c-0.03382,-0.08166 -0.06726,-0.10108 -0.125,-0.125c-0.08166,-0.03382 -0.125,-0.0625 -0.1875,-0.125c-0.0625,-0.0625 -0.125,-0.0625 -0.1875,-0.0625c-0.0625,0 -0.1875,-0.0625 -0.1875,0c0,0.125 0.25167,0.01436 0.3125,0c0.13602,-0.03211 0.1875,-0.0625 0.25,-0.0625c0.0625,0 0.16834,0.02868 0.25,0.0625c0.05774,0.02392 0.14331,0.01831 0.1875,0.0625c0.08839,0.08839 0,0.1875 0,0.3125c0,0.0625 0,0.1875 0,0.25c0,0.125 0,0.1875 0,0.25c0,0.0625 0,0.1875 0,0.25c0,0.125 -0.02868,0.16834 -0.0625,0.25c-0.02392,0.05774 0,0.125 0,0.1875c0,0.0625 -0.01436,0.18917 0,0.25c0.03211,0.13602 0.15368,0.23084 0.1875,0.3125c0.02392,0.05774 -0.02392,0.12976 0,0.1875c0.03382,0.08166 0.09118,0.16834 0.125,0.25c0.02392,0.05774 0.0625,0.0625 0.125,0.0625c0.0625,0 0.14331,-0.01831 0.1875,-0.0625c0.04419,-0.04419 0,-0.125 0,-0.1875c0,-0.125 0,-0.25 0,-0.3125c0,-0.1875 -0.03039,-0.23898 -0.0625,-0.375c-0.01436,-0.06083 0.01436,-0.12667 0,-0.1875c-0.03211,-0.13602 -0.11064,-0.25167 -0.125,-0.3125c-0.03211,-0.13602 -0.04814,-0.18917 -0.0625,-0.25c-0.03211,-0.13602 -0.0625,-0.1875 -0.0625,-0.25c0,-0.125 -0.0625,-0.25 -0.125,-0.3125c-0.0625,-0.0625 -0.1875,-0.0625 -0.25,-0.125c-0.0625,-0.0625 -0.125,-0.0625 -0.1875,-0.0625c-0.0625,0 -0.13451,-0.04784 -0.25,0c-0.08166,0.03382 -0.15368,0.04334 -0.1875,0.125c-0.04784,0.11548 -0.0625,0.25 -0.0625,0.3125c0,0.0625 0,0.125 0,0.25c0,0.0625 0,0.125 0,0.25c0,0.125 0,0.25 0,0.375l0,0.0625l0.0625,0.0625l0.0625,0.0625" id="svg_4" fill-opacity="0" stroke="#290247" fill="none"/>
  <path d="m11.875,2c0.0625,0 0.125,0 0.1875,-0.0625c0.0625,-0.0625 0.0625,-0.125 0.0625,-0.1875c0,-0.0625 0,-0.1875 0,-0.25c0,-0.0625 0.08081,-0.08081 0.125,-0.125c0.04419,-0.04419 0.0625,-0.125 0.1875,-0.125l0.0625,-0.0625" id="svg_7" fill-opacity="0" stroke="#290247" fill="none"/>
 </g>
</svg>