<svg width="32.000000" height="32.000000" viewBox="0 0 32 32" fill="none" xmlns="http://www.w3.org/2000/svg">
	<desc>
			Created with Pixso.
	</desc>
	<defs>
		<clipPath id="clip46_313">
			<rect id="Frame" width="32.000000" height="32.000000" fill="white" fill-opacity="0"/>
		</clipPath>
	</defs>
	<rect id="Frame" width="32.000000" height="32.000000" fill="#FFFFFF" fill-opacity="0"/>
	<g clip-path="url(#clip46_313)">
		<path id="Vector" d="M6.29468 17.1748C5.47736 18.7812 6.40533 19.5493 8.52271 20.8613C10.3227 21.9731 12.8094 22.3799 14.4067 22.5425C13.752 23.1719 16.752 20.2866 8.112 28.5972C6.28003 30.3535 9.22937 33.1704 11.0601 31.4521L16.0161 26.6719C17.9134 28.4971 19.7321 30.2466 20.972 31.4585C22.804 33.1841 25.752 30.3906 23.94 28.604C23.804 28.4746 17.224 22.1626 17.6254 22.5493C19.2427 22.3867 21.692 21.9561 23.4707 20.8682L23.4694 20.8667C25.5867 19.5479 26.5147 18.7812 25.7094 17.1748C25.2227 16.2627 23.9107 15.5 22.164 16.8188C22.164 16.8188 19.8054 18.6255 16.0013 18.6255C12.196 18.6255 9.83868 16.8188 9.83868 16.8188C8.09338 15.4932 6.776 16.2627 6.29468 17.1748Z" fill="#290247" fill-opacity="1.000000" fill-rule="nonzero"/>
		<path id="Vector" d="M15.9987 16.1895C20.636 16.1895 24.4226 12.5654 24.4226 8.104C24.4226 3.62402 20.636 0 15.9987 0C11.36 0 7.5733 3.62402 7.5733 8.104C7.5733 12.5654 11.36 16.1895 15.9987 16.1895ZM15.9987 4.10547C18.2773 4.10547 20.136 5.89355 20.136 8.104C20.136 10.2959 18.2773 12.084 15.9987 12.084C13.72 12.084 11.8613 10.2959 11.8613 8.104C11.86 5.89209 13.7186 4.10547 15.9987 4.10547Z" fill="#290247" fill-opacity="1.000000" fill-rule="nonzero"/>
	</g>
</svg>
