<svg width="13.141113" height="12.547119" viewBox="0 0 13.1411 12.5471" fill="none" xmlns="http://www.w3.org/2000/svg">
	<desc>
			Created with Pixso.
	</desc>
	<defs/>
	<path id="Star 1" d="M6.09503 0.345459L4.88672 4.06421C4.81976 4.27026 4.62781 4.40967 4.41119 4.40967L0.500977 4.40967C0.0166016 4.40967 -0.184814 5.02954 0.207031 5.31421L3.37048 7.61255C3.54572 7.73999 3.61908 7.96558 3.55212 8.17163L2.34381 11.8904C2.19415 12.3511 2.72137 12.7341 3.11322 12.4495L6.27667 10.1511C6.4519 10.0237 6.68921 10.0237 6.86444 10.1511L10.0279 12.4495C10.4197 12.7341 10.947 12.3511 10.7973 11.8904L9.58899 8.17163C9.52203 7.96558 9.5954 7.73999 9.77063 7.61255L12.9341 5.31421C13.3259 5.02954 13.1245 4.40967 12.6401 4.40967L8.72992 4.40967C8.51331 4.40967 8.32135 4.27026 8.25439 4.06421L7.04608 0.345459C6.89642 -0.115234 6.24469 -0.115234 6.09503 0.345459Z" fill="#FFF500" fill-opacity="1.000000" fill-rule="evenodd"/>
</svg>
