<svg width="32.000000" height="18.108887" viewBox="0 0 32 18.1089" fill="none" xmlns="http://www.w3.org/2000/svg">
	<desc>
			Created with Pixso.
	</desc>
	<defs/>
	<path id="XMLID_807_" d="M27.5406 11.5146C28.6021 12.5508 29.7224 13.5259 30.6744 14.667C31.095 15.1738 31.4932 15.6968 31.7977 16.2852C32.2293 17.1216 31.8384 18.042 31.0884 18.0923L26.4266 18.0898C25.2242 18.1899 24.2651 17.7056 23.4586 16.8838C22.8131 16.2261 22.2154 15.5264 21.5947 14.8467C21.3403 14.5688 21.074 14.3076 20.7559 14.1011C20.1194 13.688 19.5671 13.8145 19.2034 14.478C18.8329 15.1533 18.749 15.9009 18.7126 16.6533C18.6627 17.751 18.3308 18.0396 17.2281 18.0898C14.8716 18.2012 12.6351 17.8442 10.5574 16.6558C8.72571 15.6074 7.30524 14.1279 6.06891 12.4531C3.6618 9.19141 1.81836 5.60791 0.161621 1.92334C-0.211304 1.09326 0.0614014 0.647949 0.977295 0.632324C2.49811 0.602539 4.01874 0.604492 5.54132 0.629883C6.15948 0.63916 6.56866 0.993652 6.80731 1.57764C7.63013 3.60059 8.63696 5.52539 9.9007 7.30957C10.2372 7.78467 10.5804 8.25977 11.0691 8.59424C11.6097 8.96436 12.0214 8.8418 12.2757 8.23926C12.4371 7.85742 12.5078 7.44629 12.5441 7.03711C12.6646 5.63037 12.6805 4.22559 12.4691 2.82324C12.3394 1.94824 11.8465 1.38184 10.9733 1.21631C10.5278 1.13184 10.5941 0.96582 10.8098 0.711914C11.1846 0.272949 11.537 0 12.2395 0L17.5081 0C18.3376 0.163574 18.5218 0.536133 18.6353 1.37109L18.6398 7.22314C18.6308 7.54639 18.8012 8.50488 19.3832 8.71875C19.8489 8.87109 20.1559 8.49854 20.4354 8.20312C21.6968 6.86426 22.5972 5.28223 23.4015 3.64355C23.7584 2.92334 24.0653 2.17529 24.3627 1.42773C24.5831 0.873047 24.9289 0.600098 25.5538 0.612305L30.6245 0.616699C30.7748 0.616699 30.9269 0.618652 31.0726 0.643555C31.9271 0.789551 32.1612 1.15674 31.8973 1.99121C31.4814 3.30029 30.6724 4.39111 29.8813 5.4873C29.0358 6.65723 28.1313 7.7876 27.2927 8.96436C26.5223 10.0391 26.5835 10.5811 27.5406 11.5146Z" fill="#290247" fill-opacity="1.000000" fill-rule="evenodd"/>
</svg>
