<svg width="23.993246" height="22.701416" viewBox="0 0 23.9932 22.7014" fill="none" xmlns="http://www.w3.org/2000/svg">
	<desc>
			Created with Pixso.
	</desc>
	<defs/>
	<path id="Vector" d="M11.7311 20.4133C11.7311 19.1497 10.7067 18.1252 9.44312 18.1252C8.17931 18.1252 7.15485 19.1497 7.15485 20.4131C7.15485 21.677 8.17931 22.7014 9.44312 22.7014C10.706 22.7002 11.7298 21.6765 11.7311 20.4133L11.7311 20.4133ZM7.96649 20.4133C7.96649 19.5979 8.62742 18.9368 9.44312 18.9368C10.2585 18.9368 10.9195 19.5979 10.9195 20.4131C10.9195 21.2288 10.2585 21.8899 9.44312 21.8899C8.62788 21.8889 7.96736 21.2285 7.96643 20.4133L7.96649 20.4133ZM17.9159 22.7014C19.1797 22.7017 20.2042 21.6772 20.2042 20.4133C20.2044 19.1497 19.1799 18.1252 17.9161 18.1252C16.6522 18.1252 15.6279 19.1497 15.6279 20.4133C15.6295 21.6763 16.6528 22.7 17.916 22.7014L17.9159 22.7014ZM17.9159 18.9368C18.7313 18.9368 19.3926 19.5979 19.3926 20.4131C19.3928 21.2285 18.7315 21.8899 17.9161 21.8899C17.1006 21.8899 16.4394 21.2288 16.4394 20.4133C16.4404 19.5984 17.1009 18.938 17.9159 18.9368ZM0.398994 0.811523L2.87434 0.811523C3.68883 0.80835 4.38332 1.40161 4.50744 2.20679L6.46685 14.5842C6.65189 15.7844 7.68725 16.6687 8.90162 16.6638L21.0134 16.6638C21.1199 16.6621 21.2213 16.6187 21.296 16.5427C21.3706 16.4668 21.4124 16.3645 21.4124 16.2581C21.4124 16.1516 21.3706 16.0496 21.296 15.9736C21.2213 15.8977 21.1199 15.854 21.0134 15.8523L8.90162 15.8523C8.08713 15.8555 7.39264 15.2622 7.26852 14.4573L6.93542 12.3528L19.34 12.3528C20.3903 12.3523 21.3251 11.687 21.6693 10.6948L23.9707 4.05273C23.992 3.9917 23.9983 3.92627 23.9892 3.86206C23.98 3.7981 23.9557 3.73706 23.9181 3.68433C23.8806 3.63159 23.831 3.58862 23.7734 3.55884C23.7159 3.5293 23.652 3.51367 23.5873 3.51392L5.53595 3.51392L5.30912 2.07983C5.12407 0.879639 4.08883 -0.00463867 2.87434 0L0.398994 0C0.292557 0.00170898 0.19109 0.0454102 0.116455 0.121338C0.0418243 0.197266 0 0.299316 0 0.405762C0 0.512207 0.0418243 0.614502 0.116455 0.69043C0.19109 0.766357 0.292557 0.809814 0.398994 0.811523ZM23.0171 4.32568L20.9025 10.429C20.7899 10.7537 20.5789 11.0354 20.2989 11.2346C20.0188 11.4338 19.6837 11.541 19.34 11.5413L6.80679 11.5413L5.66436 4.32544L23.0171 4.32568Z" fill="#110C1F" fill-opacity="1.000000" fill-rule="nonzero"/>
</svg>
