<svg width="16.000000" height="9.000000" viewBox="0 0 16 9" fill="none" xmlns="http://www.w3.org/2000/svg">
	<desc>
			Created with Pixso.
	</desc>
	<defs/>
	<path id="Vector 8" d="M0.52002 0.97998L0.5 1C0.219971 1 0 0.780029 0 0.5C0 0.219971 0.219971 0 0.5 0L0.52002 0.0200195L0.52002 0.97998ZM15.48 0.0200195L15.5 0C15.78 0 16 0.219971 16 0.5C16 0.780029 15.78 1 15.5 1L15.48 0.97998L15.48 0.0200195Z" fill="#1F1A2D" fill-opacity="1.000000" fill-rule="nonzero"/>
	<path id="Vector 8" d="M0.5 0.5L15.5 0.5" stroke="#290247" stroke-opacity="1.000000" stroke-width="1.000000" stroke-linecap="round"/>
	<path id="Vector 9" d="M0.52002 4.97998L0.5 5C0.219971 5 0 4.78003 0 4.5C0 4.21997 0.219971 4 0.5 4L0.52002 4.02002L0.52002 4.97998ZM15.48 4.02002L15.5 4C15.78 4 16 4.21997 16 4.5C16 4.78003 15.78 5 15.5 5L15.48 4.97998L15.48 4.02002Z" fill="#1F1A2D" fill-opacity="1.000000" fill-rule="nonzero"/>
	<path id="Vector 9" d="M0.5 4.5L15.5 4.5" stroke="#290247" stroke-opacity="1.000000" stroke-width="1.000000" stroke-linecap="round"/>
	<path id="Vector 10" d="M0.52002 8.97998L0.5 9C0.219971 9 0 8.78003 0 8.5C0 8.21997 0.219971 8 0.5 8L0.52002 8.02002L0.52002 8.97998ZM15.48 8.02002L15.5 8C15.78 8 16 8.21997 16 8.5C16 8.78003 15.78 9 15.5 9L15.48 8.97998L15.48 8.02002Z" fill="#1F1A2D" fill-opacity="1.000000" fill-rule="nonzero"/>
	<path id="Vector 10" d="M0.5 8.5L15.5 8.5" stroke="#290247" stroke-opacity="1.000000" stroke-width="1.000000" stroke-linecap="round"/>
</svg>
