<svg width="16.000000" height="16.000000" viewBox="0 0 16 16" fill="none" xmlns="http://www.w3.org/2000/svg">
	<desc>
			Created with Pixso.
	</desc>
	<defs>
		<clipPath id="clip25_3937">
			<rect id="Frame" width="16.000000" height="16.000000" transform="translate(16.000000 16.000000) rotate(180.000000)" fill="white" fill-opacity="0"/>
		</clipPath>
	</defs>
	<rect id="Frame" width="16.000000" height="16.000000" transform="translate(16.000000 16.000000) rotate(180.000000)" fill="#FFFFFF" fill-opacity="0"/>
	<g clip-path="url(#clip25_3937)">
		<path id="Vector" d="M0.68 5.12C0.36 5.54 0.2 5.98 0.22 6.45C0.24 6.95 0.47 7.35 0.65 7.6C0.44 8.14 0.35 8.99 1.08 9.65C1.61 10.14 2.52 10.36 3.77 10.3C4.65 10.26 5.38 10.09 5.41 10.09L5.42 10.09C5.58 10.06 5.76 10.02 5.94 9.98C5.95 10.19 5.92 10.73 5.52 11.92C5.05 13.35 5.08 14.44 5.61 15.17C6.17 15.93 7.05 16 7.31 16C7.56 16 7.79 15.89 7.96 15.7C8.33 15.27 8.29 14.47 8.24 14.1C8.68 12.92 9.92 10.02 10.97 9.21C10.99 9.2 11 9.18 11.02 9.16C11.33 8.84 11.54 8.49 11.68 8.18C11.87 8.29 12.1 8.35 12.34 8.35L14.38 8.35C15.15 8.35 15.77 7.72 15.77 6.95L15.77 1.52C15.77 0.75 15.15 0.13 14.38 0.13L12.34 0.13C12.04 0.13 11.76 0.22 11.54 0.38L10.75 0.29C10.63 0.27 8.49 0 6.29 0.04C5.89 0.01 5.52 0 5.17 0C4.57 0 4.05 0.04 3.61 0.14C2.59 0.35 1.89 0.79 1.53 1.43C1.26 1.92 1.26 2.4 1.31 2.71C0.64 3.31 0.52 3.98 0.55 4.45C0.56 4.72 0.62 4.95 0.68 5.12ZM14.38 1.03C14.65 1.03 14.87 1.25 14.87 1.52L14.87 6.96C14.87 7.23 14.65 7.45 14.38 7.45L12.34 7.45C12.07 7.45 11.85 7.23 11.85 6.96L11.85 1.52C11.85 1.25 12.07 1.03 12.34 1.03L14.38 1.03L14.38 1.03ZM1.54 5.51C1.68 5.36 1.71 5.14 1.6 4.96C1.6 4.96 1.46 4.73 1.45 4.4C1.42 3.97 1.64 3.58 2.08 3.25C2.23 3.13 2.3 2.92 2.23 2.73C2.23 2.73 2.09 2.29 2.32 1.87C2.55 1.47 3.04 1.18 3.8 1.02C4.41 0.89 5.23 0.87 6.24 0.95L6.29 0.95C8.44 0.9 10.61 1.18 10.64 1.18L10.64 1.18L10.98 1.22C10.96 1.32 10.95 1.42 10.95 1.52L10.95 6.96C10.95 7.1 10.97 7.24 11.01 7.37C10.95 7.6 10.78 8.1 10.39 8.52C8.89 9.71 7.42 13.73 7.35 13.9C7.33 13.97 7.32 14.05 7.33 14.13C7.39 14.5 7.37 14.96 7.29 15.1C7.11 15.1 6.63 15.04 6.35 14.65C6 14.17 6.02 13.33 6.39 12.21C6.95 10.51 7 9.61 6.55 9.22C6.33 9.02 6.04 9.01 5.82 9.09C5.62 9.14 5.42 9.18 5.24 9.21C5.22 9.21 5.21 9.21 5.2 9.22C4.17 9.44 2.33 9.58 1.69 9C1.15 8.5 1.53 7.84 1.57 7.77C1.7 7.59 1.66 7.34 1.49 7.19C1.49 7.19 1.14 6.86 1.12 6.41C1.11 6.11 1.25 5.81 1.54 5.51Z" fill="black" fill-opacity="1.000000" fill-rule="nonzero"/>
	</g>
</svg>
