<svg width="21.666626" height="32.011719" viewBox="0 0 21.6666 32.0117" fill="none" xmlns="http://www.w3.org/2000/svg">
	<desc>
			Created with Pixso.
	</desc>
	<defs/>
	<path id="Vector 6" d="M1 0L20.66 0C21.21 0 21.66 0.44 21.66 1L21.66 30.89C21.66 31.78 20.58 32.23 19.95 31.59L11.89 23.42C11.51 23.03 10.89 23.02 10.49 23.4L1.68 31.73C1.04 32.33 0 31.88 0 31L0 1C0 0.44 0.44 0 1 0ZM1 1L20.66 1L20.66 30.89L12.6 22.72Q11.91 22.02 11.21 22.01Q10.51 22 9.8 22.67L1 31L1 1Z" fill="#110C1F" fill-opacity="1.000000" fill-rule="evenodd"/>
</svg>
