<svg width="24.000000" height="24.000000" viewBox="0 0 24 24" fill="none" xmlns="http://www.w3.org/2000/svg">
	<defs/>
	<rect id="Frame 21" width="24.000000" height="24.000000" fill="#FFFFFF" fill-opacity="0"/>
	<path id="Vector 6" d="M6.5 2L17.5 2C18.0523 2 18.5 2.44775 18.5 3L18.5 19.5618C18.5 20.4561 17.4159 20.9009 16.788 20.2642L12.912 16.3337C12.5298 15.9463 11.9079 15.9355 11.5126 16.3098L7.18736 20.4031C6.5499 21.0063 5.5 20.5544 5.5 19.6768L5.5 3C5.5 2.44775 5.94771 2 6.5 2ZM6.5 3L17.5 3L17.5 19.5618L13.624 15.6316Q13.476 15.4817 13.3041 15.3677Q13.1492 15.2651 12.9749 15.1919Q12.8029 15.1196 12.6235 15.0811Q12.4331 15.0398 12.2345 15.0364Q12.0358 15.033 11.8441 15.0676Q11.6635 15.1001 11.4891 15.1665Q11.3124 15.2336 11.1541 15.3306Q10.9783 15.4385 10.8253 15.5835L6.5 19.6768L6.5 3Z" fill="#110C1F" fill-opacity="1.000000" fill-rule="evenodd"/>
</svg>
