<svg width="13.333344" height="12.000000" viewBox="0 0 13.3333 12" fill="none" xmlns="http://www.w3.org/2000/svg">
	<desc>
			Created with Pixso.
	</desc>
	<defs/>
	<path id="Vector" d="M3.33 12L2 12L2 10.66L0 10.66L0 9.33L2 9.33L2 8L3.33 8L3.33 12ZM13.33 10.66L4.66 10.66L4.66 9.33L13.33 9.33L13.33 10.66ZM10 8L8.66 8L8.66 6.66L0 6.66L0 5.33L8.66 5.33L8.66 4L10 4L10 8ZM13.33 6.66L11.33 6.66L11.33 5.33L13.33 5.33L13.33 6.66ZM6 4L4.66 4L4.66 2.66L0 2.66L0 1.33L4.66 1.33L4.66 0L6 0L6 4ZM13.33 2.66L7.33 2.66L7.33 1.33L13.33 1.33L13.33 2.66Z" fill="#290247" fill-opacity="1.000000" fill-rule="nonzero"/>
</svg>
