<svg width="15.553223" height="16.000000" viewBox="0 0 15.5532 16" fill="none" xmlns="http://www.w3.org/2000/svg">
	<desc>
			Created with Pixso.
	</desc>
	<defs/>
	<path id="Vector" d="M15.08 10.87C15.41 10.45 15.57 10.01 15.55 9.54C15.53 9.04 15.3 8.64 15.11 8.39C15.33 7.85 15.41 7 14.69 6.34C14.15 5.85 13.25 5.63 12 5.69C11.12 5.73 10.38 5.9 10.35 5.9L10.35 5.9C10.18 5.93 10.01 5.97 9.83 6.01C9.81 5.8 9.85 5.26 10.24 4.07C10.71 2.64 10.68 1.55 10.16 0.82C9.6 0.06 8.71 0 8.45 0C8.2 0 7.97 0.1 7.81 0.29C7.44 0.72 7.48 1.52 7.53 1.89C7.08 3.07 5.85 5.97 4.8 6.78C4.78 6.79 4.76 6.81 4.75 6.83C4.44 7.15 4.23 7.5 4.09 7.81C3.89 7.7 3.67 7.64 3.43 7.64L1.39 7.64C0.62 7.64 0 8.27 0 9.04L0 14.47C0 15.24 0.62 15.86 1.39 15.86L3.43 15.86C3.73 15.86 4 15.77 4.23 15.61L5.02 15.7C5.14 15.72 7.28 15.99 9.48 15.95C9.88 15.98 10.25 16 10.6 16C11.2 16 11.72 15.95 12.15 15.85C13.18 15.64 13.88 15.2 14.23 14.56C14.5 14.07 14.5 13.59 14.46 13.28C15.12 12.68 15.24 12.01 15.22 11.54C15.21 11.27 15.14 11.04 15.08 10.87ZM1.39 14.96C1.12 14.96 0.9 14.74 0.9 14.47L0.9 9.03C0.9 8.76 1.12 8.54 1.39 8.54L3.43 8.54C3.7 8.54 3.92 8.76 3.92 9.03L3.92 14.47C3.92 14.74 3.7 14.96 3.43 14.96L1.39 14.96L1.39 14.96ZM14.23 10.48C14.08 10.63 14.06 10.85 14.16 11.03C14.16 11.03 14.3 11.26 14.32 11.59C14.34 12.02 14.13 12.41 13.69 12.74C13.53 12.86 13.47 13.07 13.54 13.26C13.54 13.26 13.68 13.7 13.45 14.12C13.22 14.52 12.72 14.81 11.97 14.97C11.36 15.1 10.54 15.12 9.53 15.04L9.48 15.04C7.33 15.09 5.15 14.81 5.13 14.81L5.13 14.81L4.79 14.77C4.81 14.67 4.82 14.57 4.82 14.47L4.82 9.03C4.82 8.89 4.8 8.75 4.76 8.62C4.82 8.39 4.98 7.89 5.38 7.47C6.88 6.28 8.35 2.26 8.41 2.09C8.44 2.02 8.45 1.94 8.43 1.86C8.38 1.49 8.4 1.03 8.48 0.89C8.65 0.89 9.13 0.95 9.42 1.34C9.76 1.82 9.75 2.66 9.38 3.78C8.82 5.48 8.77 6.38 9.22 6.77C9.44 6.97 9.73 6.98 9.95 6.9C10.15 6.85 10.34 6.81 10.53 6.78C10.54 6.78 10.56 6.78 10.57 6.77C11.6 6.55 13.44 6.41 14.08 6.99C14.62 7.49 14.24 8.15 14.19 8.22C14.07 8.4 14.1 8.65 14.27 8.8C14.28 8.8 14.63 9.13 14.64 9.58C14.66 9.88 14.52 10.18 14.23 10.48Z" fill="black" fill-opacity="1.000000" fill-rule="nonzero"/>
</svg>
