<svg width="105.000000" height="40.000000" viewBox="0 0 105 40" fill="none" xmlns="http://www.w3.org/2000/svg">
	<desc>
			Created with Pixso.
	</desc>
	<defs>
		<clipPath id="clip25_89">
			<rect id="Group 2 1" width="105.000000" height="40.000000" fill="white" fill-opacity="0"/>
		</clipPath>
	</defs>
	<rect id="Group 2 1" width="105.000000" height="40.000000" fill="#FFFFFF" fill-opacity="0"/>
	<g clip-path="url(#clip25_89)">
		<path id="Vector" d="M50.1962 12.123C49.912 12.2461 49.5538 12.3386 49.1215 12.4001C48.7014 12.4617 48.2629 12.4924 47.8058 12.4924C44.7052 12.4924 43.1549 11.1384 43.1549 8.43091L43.1549 7.13843C43.1549 6.51074 43.0685 6.04932 42.8955 5.75391C42.7227 5.44629 42.3767 5.29248 41.8579 5.29248L41.6726 5.29248L41.6726 4.73853L43.8961 4.73853C44.3408 4.73853 44.6805 4.81226 44.9153 4.95996C45.1499 5.10767 45.3168 5.354 45.4155 5.69849C45.5144 6.03076 45.5637 6.51074 45.5637 7.13843L45.5637 8.61548C45.5637 9.6001 45.7985 10.3569 46.2679 10.8862C46.7496 11.4031 47.3796 11.6616 48.158 11.6616C48.8744 11.6616 49.5538 11.5386 50.1962 11.2925L50.1962 4.73853L52.605 4.73853L52.605 16.9231L50.1962 16.9231L50.1962 12.123ZM55.7379 7.13843C55.7379 6.51074 55.6515 6.04932 55.4785 5.75391C55.3057 5.44629 54.9597 5.29248 54.4409 5.29248L54.2556 5.29248L54.2556 4.73853L56.4791 4.73853C56.9238 4.73853 57.2635 4.81226 57.4983 4.95996C57.733 5.10767 57.8998 5.354 57.9985 5.69849C58.0974 6.03076 58.1469 6.51074 58.1469 7.13843L58.1469 14.5232L63.5204 4.73853L65.7439 4.73853L65.7439 16.9231L63.3351 16.9231L63.3351 7.13843L57.9615 16.9231L55.7379 16.9231L55.7379 7.13843ZM71.4136 5.56934L70.0979 5.56934C69.4062 5.56934 68.875 5.7417 68.5044 6.08618C68.1462 6.43091 67.967 6.99707 67.967 7.78467L67.4111 7.78467L67.4111 6.21533C67.4111 5.23071 67.9362 4.73853 68.9862 4.73853L77.6951 4.73853L77.6951 5.56934L73.8224 5.56934L73.8224 16.9231L71.4136 16.9231L71.4136 5.56934ZM88.1246 16.9971C87.3464 16.9971 86.6423 16.8369 86.0123 16.5171C85.3823 16.1846 84.8696 15.5447 84.4743 14.5969L84.0482 13.5632L79.1193 13.5632L77.5999 16.9231L76.6364 16.9231L82.1025 4.73853L82.9364 4.73853L87.087 14.5969C87.5564 15.7417 88.1987 16.3569 89.014 16.4431L89.014 16.9048C88.7917 16.9663 88.4952 16.9971 88.1246 16.9971ZM79.5084 12.7324L83.696 12.7324L81.6578 7.91382L79.5084 12.7324ZM90.2454 7.13843C90.2454 6.51074 90.159 6.04932 89.986 5.75391C89.8131 5.44629 89.4672 5.29248 88.9484 5.29248L88.7631 5.29248L88.7631 4.73853L90.9866 4.73853C91.4313 4.73853 91.7711 4.81226 92.0057 4.95996C92.2405 5.10767 92.4072 5.354 92.506 5.69849C92.6049 6.03076 92.6543 6.51074 92.6543 7.13843L92.6543 14.5232L98.0278 4.73853L100.251 4.73853L100.251 16.9231L97.8425 16.9231L97.8425 7.13843L92.469 16.9231L90.2454 16.9231L90.2454 7.13843ZM95.2299 3.90771C94.6369 3.90771 94.1119 3.75391 93.6548 3.44629C93.1978 3.12622 92.8519 2.70166 92.6172 2.17236L93.136 1.78467C93.3461 2.04321 93.624 2.26465 93.9698 2.44922C94.3281 2.62158 94.7481 2.70776 95.2299 2.70776C95.7116 2.70776 96.1255 2.62158 96.4713 2.44922C96.8296 2.26465 97.1137 2.04321 97.3237 1.78467L97.8425 2.17236C97.6078 2.70166 97.2619 3.12622 96.8049 3.44629C96.3478 3.75391 95.8228 3.90771 95.2299 3.90771ZM53.3832 37.1077C52.605 37.1077 51.8575 36.9539 51.1411 36.6462C50.437 36.3262 49.6774 35.7417 48.8621 34.8923L45.8788 31.7908L45.8788 36.9231L43.47 36.9231L43.4514 27.1384C43.4514 26.5107 43.365 26.0493 43.192 25.7539C43.019 25.4463 42.6732 25.2925 42.1544 25.2925L41.9691 25.2925L41.9691 24.7385L44.1926 24.7385C44.625 24.7385 44.9585 24.8123 45.1932 24.96C45.4403 25.1077 45.6132 25.354 45.712 25.6985C45.8232 26.0432 45.8788 26.5232 45.8788 27.1384L45.8788 30.6462L49.0844 26.677C49.5414 26.0862 50.0294 25.6184 50.5482 25.2739C51.0793 24.917 51.6847 24.7385 52.3641 24.7385L53.6611 24.7385L53.6611 25.3848C52.8953 25.3848 52.2344 25.4832 51.6785 25.6799C51.135 25.8647 50.6655 26.2031 50.2703 26.6956L47.5094 30.0923L51.7897 34.5232C52.2467 35.0278 52.7594 35.4707 53.3276 35.8523C53.9082 36.2217 54.3776 36.4309 54.7358 36.48L54.7358 36.9231C54.3652 37.0461 53.9144 37.1077 53.3832 37.1077ZM56.299 27.1384C56.299 26.5107 56.2125 26.0493 56.0396 25.7539C55.8666 25.4463 55.5208 25.2925 55.002 25.2925L54.8167 25.2925L54.8167 24.7385L57.0402 24.7385C57.4849 24.7385 57.8246 24.8123 58.0592 24.96C58.2939 25.1077 58.4607 25.354 58.5596 25.6985C58.6583 26.0308 58.7078 26.5107 58.7078 27.1384L58.7078 30.1846L63.7107 30.1846L63.7107 24.7385L66.1195 24.7385L66.1195 34.5232C66.1195 35.1509 66.2061 35.6184 66.3789 35.9263C66.5519 36.2217 66.8978 36.3694 67.4166 36.3694L67.6019 36.3694L67.6019 36.9231L65.3784 36.9231C64.9337 36.9231 64.594 36.8555 64.3593 36.72C64.1245 36.5723 63.9578 36.3323 63.859 36C63.7601 35.6555 63.7107 35.1631 63.7107 34.5232L63.7107 31.0154L58.7078 31.0154L58.7078 36.9231L56.299 36.9231L56.299 27.1384ZM69.635 27.1384C69.635 26.5107 69.5486 26.0493 69.3756 25.7539C69.2026 25.4463 68.8568 25.2925 68.338 25.2925L68.1527 25.2925L68.1527 24.7385L70.3762 24.7385C70.8209 24.7385 71.1606 24.8123 71.3954 24.96C71.63 25.1077 71.7968 25.354 71.8956 25.6985C71.9944 26.0308 72.0438 26.5107 72.0438 27.1384L72.0438 34.5232L77.4174 24.7385L79.6409 24.7385L79.6409 36.9231L77.2321 36.9231L77.2321 27.1384L71.8585 36.9231L69.635 36.9231L69.635 27.1384ZM82.7721 27.1384C82.7721 26.5107 82.6855 26.0493 82.5127 25.7539C82.3397 25.4463 81.9939 25.2925 81.475 25.2925L81.2897 25.2925L81.2897 24.7385L89.2388 24.7385C90.2888 24.7385 90.8138 25.2307 90.8138 26.2153L90.8138 27.7847L90.2579 27.7847C90.2579 27.0093 90.0603 26.4492 89.665 26.1047C89.2821 25.7478 88.7076 25.5693 87.9418 25.5693L85.1809 25.5693L85.1809 36.9231L82.7721 36.9231L82.7721 27.1384ZM92.8511 27.1384C92.8511 26.5107 92.7646 26.0493 92.5917 25.7539C92.4188 25.4463 92.0729 25.2925 91.5541 25.2925L91.3688 25.2925L91.3688 24.7385L93.5923 24.7385C94.037 24.7385 94.3768 24.8123 94.6115 24.96C94.8461 25.1077 95.0129 25.354 95.1118 25.6985C95.2106 26.0308 95.26 26.5107 95.26 27.1384L95.26 34.5232L100.633 24.7385L102.857 24.7385L102.857 36.9231L100.448 36.9231L100.448 27.1384L95.0747 36.9231L92.8511 36.9231L92.8511 27.1384Z" fill="#290247" fill-opacity="1.000000" fill-rule="nonzero"/>
		<path id="Vector" d="M0 4.61548L13.8971 4.61548L12.3529 21.5386L0 21.5386L0 4.61548Z" fill="#290247" fill-opacity="1.000000" fill-rule="nonzero"/>
		<path id="Vector" d="M16.2133 4.61548L19.3015 4.61548L20.0735 21.5386L15.4412 21.5386L16.2133 4.61548Z" fill="#290247" fill-opacity="1.000000" fill-rule="nonzero"/>
		<path id="Vector" d="M22.3896 4.61548L25.4779 4.61548L25.4779 21.5386L23.1617 21.5386L22.3896 4.61548Z" fill="#290247" fill-opacity="1.000000" fill-rule="nonzero"/>
		<path id="Vector" d="M27.7942 4.61548L32.4265 4.61548L32.4265 21.5386L27.7942 21.5386L27.7942 4.61548Z" fill="#290247" fill-opacity="1.000000" fill-rule="evenodd"/>
		<path id="Vector" d="M33.9707 6.15381L35.4917 5.88843L37.8308 21.5383L36.2867 21.5383L33.9707 6.15381Z" fill="#290247" fill-opacity="1.000000" fill-rule="nonzero"/>
		<path id="Vector" d="M4.8855 25.5386C4.8855 25.3293 4.85669 25.1755 4.79895 25.0769C4.74133 24.9744 4.6261 24.9231 4.45312 24.9231L4.39136 24.9231L4.39136 24.8L7.23254 24.8L7.23254 27.6924L6.67664 27.6924L6.67664 25.0461L5.44141 25.0461L5.44141 27.6924L4.8855 27.6924L4.8855 25.5386ZM9.31506 27.7539C9.03516 27.7539 8.79211 27.6882 8.5863 27.5569C8.38037 27.4216 8.22388 27.239 8.11682 27.0093C8.00977 26.7795 7.9563 26.5251 7.9563 26.2463C7.9563 25.9673 8.00977 25.7129 8.11682 25.4832C8.22388 25.2534 8.38037 25.0728 8.5863 24.9417C8.79211 24.8062 9.03516 24.7385 9.31506 24.7385C9.59509 24.7385 9.83801 24.8062 10.0439 24.9417C10.2499 25.0728 10.4062 25.2534 10.5133 25.4832C10.6204 25.7129 10.674 25.9673 10.674 26.2463C10.674 26.5251 10.6204 26.7795 10.5133 27.0093C10.4062 27.239 10.2499 27.4216 10.0439 27.5569C9.83801 27.6882 9.59509 27.7539 9.31506 27.7539ZM9.31506 27.5078C9.46741 27.5078 9.60132 27.4524 9.71655 27.3416C9.83594 27.231 9.92664 27.0791 9.9884 26.8862C10.0542 26.6934 10.0872 26.48 10.0872 26.2463C10.0872 26.0125 10.0542 25.7991 9.9884 25.6062C9.92664 25.4136 9.83594 25.2617 9.71655 25.1509C9.60132 25.04 9.46741 24.9846 9.31506 24.9846C9.16272 24.9846 9.02686 25.04 8.90747 25.1509C8.79211 25.2617 8.70154 25.4136 8.63574 25.6062C8.57397 25.7991 8.54309 26.0125 8.54309 26.2463C8.54309 26.48 8.57397 26.6934 8.63574 26.8862C8.70154 27.0791 8.79211 27.231 8.90747 27.3416C9.02686 27.4524 9.16272 27.5078 9.31506 27.5078ZM13.665 27.7539C13.3315 27.7539 13.033 27.5898 12.7694 27.2617L12.0592 26.3694L12.0592 27.6924L11.5033 27.6924L11.5033 25.5386C11.5033 25.3293 11.4745 25.1755 11.4167 25.0769C11.3591 24.9744 11.2439 24.9231 11.0709 24.9231L10.9474 24.9231L10.9474 24.8L11.5033 24.8C11.6556 24.8 11.7688 24.8206 11.843 24.8616C11.9213 24.8984 11.9768 24.9683 12.0098 25.0708C12.0427 25.1733 12.0592 25.3293 12.0592 25.5386L12.0592 26.2771L12.8312 25.2C12.9259 25.0688 13.035 24.9705 13.1586 24.9048C13.2863 24.835 13.4447 24.8 13.6342 24.8L13.7886 24.8L13.7886 24.9539C13.5497 24.9539 13.3645 25.0461 13.2327 25.231L12.5532 26.1846L13.2635 27.0769C13.3789 27.2246 13.4921 27.3396 13.6033 27.4216C13.7186 27.5037 13.842 27.5549 13.9739 27.5754L13.9739 27.6924C13.8833 27.7334 13.7803 27.7539 13.665 27.7539ZM14.6722 28.7385C14.874 28.7385 15.0387 28.6914 15.1664 28.5969C15.2981 28.5066 15.4114 28.3386 15.506 28.0923L15.6295 27.7539L14.6414 25.354C14.526 25.0586 14.2996 24.8943 13.9619 24.8616L13.9619 24.7385L14.4869 24.7385C14.8452 24.7385 15.0923 24.9026 15.2281 25.231L15.9321 26.9355L16.7104 24.8L17.0193 24.8L15.8148 28.0923C15.6954 28.4165 15.5637 28.636 15.4196 28.7507C15.2755 28.8657 15.0881 28.9231 14.8575 28.9231L14.6722 28.9231L14.6722 28.7385ZM17.7029 25.5386C17.7029 25.3293 17.6741 25.1755 17.6163 25.0769C17.5587 24.9744 17.4434 24.9231 17.2705 24.9231L17.2087 24.9231L17.2087 24.8L20.0499 24.8L20.0499 27.6924L19.494 27.6924L19.494 25.0461L18.2587 25.0461L18.2587 27.6924L17.7029 27.6924L17.7029 25.5386ZM21.6322 27.7539C21.5005 27.7539 21.3666 27.7273 21.2307 27.6738C21.0948 27.6165 20.9774 27.5242 20.8787 27.397C20.7839 27.2698 20.7366 27.1016 20.7366 26.8923C20.7366 26.5806 20.8807 26.3589 21.1689 26.2278C21.4613 26.0964 21.8422 26.0308 22.3115 26.0308L22.4968 26.0308C22.4968 25.6289 22.4413 25.354 22.3301 25.2063C22.2189 25.0586 22.0583 24.9846 21.8483 24.9846C21.663 24.9846 21.5148 25.0237 21.4036 25.1016C21.2925 25.1797 21.2144 25.3149 21.1689 25.5078L20.891 25.5078C20.891 25.3682 20.8993 25.2595 20.9156 25.1816C20.9323 25.0996 20.9755 25.0237 21.0454 24.9539C21.1195 24.8801 21.241 24.8267 21.4098 24.7939C21.5828 24.7571 21.7701 24.7385 21.9718 24.7385C22.3054 24.7385 22.569 24.8289 22.7625 25.0093C22.9561 25.1858 23.0527 25.5261 23.0527 26.0308L23.0527 27.6924L22.7439 27.6924L22.5277 27.4155L22.4968 27.4155C22.4227 27.5098 22.3137 27.5898 22.1694 27.6555C22.0254 27.7212 21.8463 27.7539 21.6322 27.7539ZM21.91 27.4771C22.046 27.4771 22.1593 27.4443 22.2498 27.3784C22.3405 27.3127 22.4227 27.2227 22.4968 27.1077L22.4968 26.2771L22.3115 26.2771C22.007 26.2771 21.766 26.3345 21.5889 26.4492C21.412 26.5601 21.3234 26.7078 21.3234 26.8923C21.3234 27.0811 21.3789 27.2268 21.4901 27.3293C21.6055 27.4277 21.7455 27.4771 21.91 27.4771ZM24.0005 25.5386C24.0005 25.3293 23.9718 25.1755 23.9141 25.0769C23.8564 24.9744 23.7411 24.9231 23.5681 24.9231L23.4755 24.9231L23.4755 24.8L24.0005 24.8C24.153 24.8 24.2661 24.8206 24.3402 24.8616C24.4185 24.8984 24.4741 24.9683 24.507 25.0708C24.54 25.1733 24.5564 25.3293 24.5564 25.5386L24.5564 27.1384L25.8534 24.8L26.4093 24.8L26.4093 27.6924L25.8534 27.6924L25.8534 25.354L24.5564 27.6924L24.0005 27.6924L24.0005 25.5386ZM25.205 24.4863C24.8508 24.4863 24.5833 24.322 24.402 23.9939L24.5255 23.9016C24.6079 23.9836 24.7006 24.0452 24.8035 24.0862C24.9065 24.1272 25.0403 24.1477 25.205 24.1477C25.3696 24.1477 25.5035 24.1272 25.6064 24.0862C25.7094 24.0452 25.802 23.9836 25.8843 23.9016L26.0078 23.9939C25.8268 24.322 25.5591 24.4863 25.205 24.4863ZM28.083 25.0461L27.7742 25.0461C27.5807 25.0461 27.4241 25.1016 27.3048 25.2124C27.1854 25.3191 27.1256 25.4688 27.1256 25.6616L27.0021 25.6616L27.0021 25.2925C27.0021 24.9641 27.1565 24.8 27.4653 24.8L29.658 24.8L29.658 25.0461L28.6389 25.0461L28.6389 27.6924L28.083 27.6924L28.083 25.0461ZM31.2389 27.7539C30.9589 27.7539 30.7222 27.6882 30.5286 27.5569C30.3351 27.4216 30.1888 27.2412 30.0901 27.0154C29.9912 26.7856 29.9418 26.5293 29.9418 26.2463C29.9418 25.9673 29.9912 25.7129 30.0901 25.4832C30.1888 25.2534 30.3309 25.0728 30.5162 24.9417C30.7057 24.8062 30.926 24.7385 31.1771 24.7385C31.5931 24.7385 31.9019 24.8555 32.1035 25.0894C32.3096 25.3191 32.4124 25.6536 32.4124 26.0923L32.4 26.3386L30.5286 26.3386C30.5286 26.6831 30.6027 26.9641 30.751 27.1816C30.8992 27.3989 31.103 27.5078 31.3624 27.5078C31.556 27.5078 31.7186 27.4668 31.8503 27.3848C31.9862 27.3027 32.1119 27.1797 32.2271 27.0154L32.3506 27.1077C32.2147 27.3335 32.0563 27.4976 31.875 27.6001C31.694 27.7026 31.4819 27.7539 31.2389 27.7539ZM31.8257 26.0923C31.8257 25.7312 31.7722 25.4565 31.665 25.2678C31.558 25.0791 31.3954 24.9846 31.1771 24.9846C31.0536 24.9846 30.9424 25.0339 30.8436 25.1323C30.7448 25.2268 30.6666 25.3582 30.6089 25.5261C30.5554 25.6943 30.5286 25.8831 30.5286 26.0923L31.8257 26.0923ZM17.3687 30.1538C17.3687 29.9446 17.3398 29.7908 17.2822 29.6924C17.2246 29.5898 17.1093 29.5386 16.9363 29.5386L16.8436 29.5386L16.8436 29.4155L17.3687 29.4155C17.5211 29.4155 17.6343 29.436 17.7084 29.4771C17.7866 29.5139 17.8423 29.5835 17.8751 29.6863C17.9081 29.7888 17.9246 29.9446 17.9246 30.1538L17.9246 31.7539L19.2217 29.4155L19.7775 29.4155L19.7775 32.3079L19.2217 32.3079L19.2217 29.9692L17.9246 32.3079L17.3687 32.3079L17.3687 30.1538ZM10.7147 35.7354C10.5294 35.8093 10.3236 35.8462 10.097 35.8462C9.78003 35.8462 9.5144 35.7827 9.30029 35.6555C9.09033 35.5242 8.98535 35.2903 8.98535 34.9539L8.98535 34.7693C8.98535 34.5601 8.95654 34.4062 8.8988 34.3079C8.84119 34.2051 8.72595 34.1538 8.55298 34.1538L8.49121 34.1538L8.49121 34.0308L9.01624 34.0308C9.16858 34.0308 9.28174 34.0513 9.35596 34.0923C9.43408 34.1294 9.48975 34.199 9.52271 34.3015C9.55566 34.4043 9.57214 34.5601 9.57214 34.7693L9.57214 35.0154C9.57214 35.2166 9.62561 35.3643 9.73267 35.4585C9.83972 35.5527 9.97144 35.6001 10.1279 35.6001C10.3339 35.6001 10.5294 35.5632 10.7147 35.4893L10.7147 34.0308L11.2706 34.0308L11.2706 36.9231L10.7147 36.9231L10.7147 35.7354ZM12.2478 34.7693C12.2478 34.5601 12.2189 34.4062 12.1613 34.3079C12.1036 34.2051 11.9883 34.1538 11.8154 34.1538L11.7228 34.1538L11.7228 34.0308L12.2478 34.0308C12.4001 34.0308 12.5133 34.0513 12.5874 34.0923C12.6656 34.1294 12.7213 34.199 12.7543 34.3015C12.7871 34.4043 12.8036 34.5601 12.8036 34.7693L12.8036 36.3694L14.1007 34.0308L14.6566 34.0308L14.6566 36.9231L14.1007 36.9231L14.1007 34.5847L12.8036 36.9231L12.2478 36.9231L12.2478 34.7693ZM16.3302 34.2771L16.0215 34.2771C15.8278 34.2771 15.6714 34.3323 15.552 34.4431C15.4325 34.5498 15.3728 34.6997 15.3728 34.8923L15.2494 34.8923L15.2494 34.5232C15.2494 34.1951 15.4037 34.0308 15.7126 34.0308L17.9053 34.0308L17.9053 34.2771L16.8861 34.2771L16.8861 36.9231L16.3302 36.9231L16.3302 34.2771ZM19.1321 36.9846C19.0004 36.9846 18.8665 36.958 18.7306 36.9048C18.5947 36.8474 18.4773 36.7549 18.3785 36.6277C18.2839 36.5005 18.2365 36.3323 18.2365 36.123C18.2365 35.8113 18.3805 35.5898 18.6688 35.4585C18.9612 35.3274 19.342 35.2617 19.8115 35.2617L19.9968 35.2617C19.9968 34.8596 19.9412 34.5847 19.83 34.437C19.7189 34.2893 19.5582 34.2156 19.3483 34.2156C19.163 34.2156 19.0146 34.2544 18.9036 34.3323C18.7924 34.4104 18.7141 34.5457 18.6688 34.7385L18.3909 34.7385C18.3909 34.5989 18.399 34.4905 18.4156 34.4124C18.4321 34.3303 18.4753 34.2544 18.5453 34.1846C18.6194 34.1108 18.741 34.0574 18.9097 34.0247C19.0826 33.9878 19.2699 33.9692 19.4718 33.9692C19.8053 33.9692 20.0688 34.0596 20.2623 34.24C20.4558 34.4165 20.5526 34.7571 20.5526 35.2617L20.5526 36.9231L20.2438 36.9231L20.0276 36.6462L19.9968 36.6462C19.9226 36.7405 19.8135 36.8206 19.6694 36.8862C19.5254 36.9519 19.3462 36.9846 19.1321 36.9846ZM19.41 36.7078C19.5459 36.7078 19.6591 36.675 19.7498 36.6094C19.8403 36.5437 19.9226 36.4534 19.9968 36.3386L19.9968 35.5078L19.8115 35.5078C19.5068 35.5078 19.266 35.5652 19.0889 35.6802C18.9117 35.7908 18.8232 35.9385 18.8232 36.123C18.8232 36.312 18.8788 36.4575 18.99 36.5601C19.1053 36.6584 19.2452 36.7078 19.41 36.7078ZM21.5005 34.7693C21.5005 34.5601 21.4716 34.4062 21.4139 34.3079C21.3562 34.2051 21.241 34.1538 21.0681 34.1538L20.9755 34.1538L20.9755 34.0308L21.5005 34.0308C21.6527 34.0308 21.766 34.0513 21.8401 34.0923C21.9182 34.1294 21.9739 34.199 22.007 34.3015C22.0398 34.4043 22.0563 34.5601 22.0563 34.7693L22.0563 36.3694L23.3534 34.0308L23.9093 34.0308L23.9093 36.9231L23.3534 36.9231L23.3534 34.5847L22.0563 36.9231L21.5005 36.9231L21.5005 34.7693ZM22.7048 33.717C22.3506 33.717 22.083 33.5527 21.9019 33.2246L22.0254 33.1323C22.1078 33.2144 22.2003 33.2759 22.3033 33.3169C22.4062 33.3582 22.54 33.3784 22.7048 33.3784C22.8694 33.3784 23.0033 33.3582 23.1063 33.3169C23.2091 33.2759 23.3018 33.2144 23.3843 33.1323L23.5078 33.2246C23.3265 33.5527 23.059 33.717 22.7048 33.717ZM25.5829 34.2771L25.274 34.2771C25.0804 34.2771 24.9241 34.3323 24.8047 34.4431C24.6852 34.5498 24.6256 34.6997 24.6256 34.8923L24.5021 34.8923L24.5021 34.5232C24.5021 34.1951 24.6565 34.0308 24.9653 34.0308L27.158 34.0308L27.158 34.2771L26.1388 34.2771L26.1388 36.9231L25.5829 36.9231L25.5829 34.2771ZM28.7388 36.9846C28.4589 36.9846 28.2219 36.9189 28.0284 36.7878C27.835 36.6523 27.6888 36.4719 27.59 36.2463C27.4911 36.0166 27.4418 35.76 27.4418 35.4771C27.4418 35.198 27.4911 34.9436 27.59 34.7139C27.6888 34.4841 27.8308 34.3037 28.0161 34.1724C28.2056 34.0371 28.4258 33.9692 28.677 33.9692C29.0929 33.9692 29.4017 34.0862 29.6035 34.3201C29.8093 34.5498 29.9124 34.8843 29.9124 35.3232L29.8999 35.5693L28.0284 35.5693C28.0284 35.9138 28.1027 36.1951 28.2509 36.4124C28.399 36.6299 28.6029 36.7385 28.8623 36.7385C29.0558 36.7385 29.2185 36.6975 29.3502 36.6155C29.4861 36.5334 29.6117 36.4104 29.7271 36.2463L29.8506 36.3386C29.7147 36.5642 29.556 36.7283 29.375 36.8308C29.1938 36.9333 28.9817 36.9846 28.7388 36.9846ZM29.3256 35.3232C29.3256 34.9622 29.272 34.6873 29.1649 34.4985C29.058 34.3098 28.8953 34.2156 28.677 34.2156C28.5535 34.2156 28.4423 34.2646 28.3435 34.363C28.2446 34.4575 28.1664 34.5889 28.1088 34.7571C28.0552 34.925 28.0284 35.114 28.0284 35.3232L29.3256 35.3232Z" fill="#290247" fill-opacity="1.000000" fill-rule="nonzero"/>
	</g>
</svg>
