<svg width="15.5532" height="16" xmlns="http://www.w3.org/2000/svg" fill="none">
 <desc>Created with Pixso.</desc>

 <g>
  <title>Слой 1</title>
  <path id="Vector" d="m15.08,10.87c0.33,-0.42 0.49,-0.86 0.47,-1.33c-0.02,-0.5 -0.25,-0.9 -0.44,-1.15c0.22,-0.54 0.3,-1.39 -0.42,-2.05c-0.54,-0.49 -1.44,-0.71 -2.69,-0.65c-0.88,0.04 -1.62,0.21 -1.65,0.21l0,0c-0.17,0.03 -0.34,0.07 -0.52,0.11c-0.02,-0.21 0.02,-0.75 0.41,-1.94c0.47,-1.43 0.44,-2.52 -0.08,-3.25c-0.56,-0.76 -1.45,-0.82 -1.71,-0.82c-0.25,0 -0.48,0.1 -0.64,0.29c-0.37,0.43 -0.33,1.23 -0.28,1.6c-0.45,1.18 -1.68,4.08 -2.73,4.89c-0.02,0.01 -0.04,0.03 -0.05,0.05c-0.31,0.32 -0.52,0.67 -0.66,0.98c-0.2,-0.11 -0.42,-0.17 -0.66,-0.17l-2.04,0c-0.77,0 -1.39,0.63 -1.39,1.4l0,5.43c0,0.77 0.62,1.39 1.39,1.39l2.04,0c0.3,0 0.57,-0.09 0.8,-0.25l0.79,0.09c0.12,0.02 2.26,0.29 4.46,0.25c0.4,0.03 0.77,0.05 1.12,0.05c0.6,0 1.12,-0.05 1.55,-0.15c1.03,-0.21 1.73,-0.65 2.08,-1.29c0.27,-0.49 0.27,-0.97 0.23,-1.28c0.66,-0.6 0.78,-1.27 0.76,-1.74c-0.01,-0.27 -0.08,-0.5 -0.14,-0.67zm-13.69,4.09c-0.27,0 -0.49,-0.22 -0.49,-0.49l0,-5.44c0,-0.27 0.22,-0.49 0.49,-0.49l2.04,0c0.27,0 0.49,0.22 0.49,0.49l0,5.44c0,0.27 -0.22,0.49 -0.49,0.49l-2.04,0l0,0zm12.84,-4.48c-0.15,0.15 -0.17,0.37 -0.07,0.55c0,0 0.14,0.23 0.16,0.56c0.02,0.43 -0.19,0.82 -0.63,1.15c-0.16,0.12 -0.22,0.33 -0.15,0.52c0,0 0.14,0.44 -0.09,0.86c-0.23,0.4 -0.73,0.69 -1.48,0.85c-0.61,0.13 -1.43,0.15 -2.44,0.07l-0.05,0c-2.15,0.05 -4.33,-0.23 -4.35,-0.23l0,0l-0.34,-0.04c0.02,-0.1 0.03,-0.2 0.03,-0.3l0,-5.44c0,-0.14 -0.02,-0.28 -0.06,-0.41c0.06,-0.23 0.22,-0.73 0.62,-1.15c1.5,-1.19 2.97,-5.21 3.03,-5.38c0.03,-0.07 0.04,-0.15 0.02,-0.23c-0.05,-0.37 -0.03,-0.83 0.05,-0.97c0.17,0 0.65,0.06 0.94,0.45c0.34,0.48 0.33,1.32 -0.04,2.44c-0.56,1.7 -0.61,2.6 -0.16,2.99c0.22,0.2 0.51,0.21 0.73,0.13c0.2,-0.05 0.39,-0.09 0.58,-0.12c0.01,0 0.03,0 0.04,-0.01c1.03,-0.22 2.87,-0.36 3.51,0.22c0.54,0.5 0.16,1.16 0.11,1.23c-0.12,0.18 -0.09,0.43 0.08,0.58c0.01,0 0.36,0.33 0.37,0.78c0.02,0.3 -0.12,0.6 -0.41,0.9z" fill="#290247" fill-rule="nonzero" stroke="null"/>
  <path stroke="#290247" d="m3.9016,9.03347c0,0.06781 -0.01296,0.40368 -0.0625,0.67802c-0.08495,0.47049 -0.125,0.88142 -0.25,1.35603c-0.125,0.47461 -0.20894,0.94081 -0.3125,1.28822c-0.07928,0.26599 -0.1433,0.45475 -0.1875,0.40681c-0.04419,-0.04794 -0.0625,-0.40681 -0.0625,-0.81362c0,-0.4068 -0.05038,-1.01908 -0.125,-1.49163c-0.0538,-0.34075 -0.15539,-0.53046 -0.1875,-0.67801c-0.01436,-0.06599 -0.0625,-0.1356 -0.0625,-0.0678c0,0.2034 -0.0312,0.53959 -0.0625,1.15262c-0.02419,0.47388 -0.0625,1.22043 -0.0625,1.62724c0,0.47461 0,0.67801 0,0.81361c0,0.0678 -0.04334,-0.00328 0,-0.339c0.06311,-0.48884 0.3125,-1.01703 0.4375,-1.49164c0.125,-0.47461 -0.25,-0.76702 0.8125,0.70648c1.0625,1.4735 -0.625,-2.74052 -0.625,-2.87612c0,-0.0678 0.0118,-0.17525 0.0625,-0.1356c0.16034,0.12536 0.19939,0.39877 0.3125,0.61021c0.14029,0.26225 0.125,0.40681 0.125,0.54241c0,0.0678 0,0.2034 0,0.27121c0,0.1356 0,0.2034 0,0.2712c0,0.0678 0.04723,-0.00101 0.0625,-0.1356c0.03149,-0.27746 0.0625,-0.47461 0.0625,-0.67801c0,-0.20341 0,-0.33901 0,-0.54242c0,-0.0678 0,-0.2034 0,-0.2712c0,-0.1356 -0.02867,-0.25042 -0.0625,-0.33901c-0.07175,-0.18792 -0.0625,-0.2712 -0.125,-0.2712c-0.0625,0 -0.125,0 -0.1875,0c-0.0625,0 -0.125,0 -0.1875,0c-0.125,0 -0.1875,0 -0.125,0c0.0625,0 0.125,0 0,0c-0.0625,0 -0.1875,0 -0.25,0c-0.1875,0 -0.3125,0 -0.4375,0c-0.125,0 -0.1875,0 -0.25,0c-0.125,0 -0.1875,0 -0.25,0c-0.0625,0 -0.1433,-0.04795 -0.1875,0c-0.04419,0.04794 0,0.1356 0,0.2712c0,0.1356 0,0.20341 0,0.33901c0,0.0678 0.01436,0.13379 0,0.0678c-0.03211,-0.14755 -0.10108,-0.20857 -0.125,-0.27121c-0.03382,-0.08858 -0.10584,-0.16671 -0.1875,-0.2034c-0.05774,-0.02595 -0.125,0 -0.1875,0c-0.0625,0 -0.0625,0.0678 -0.0625,0.1356c0,0.0678 0,0.13561 0,0.27121c0,0.0678 0,0.1356 0,0.2034c0,0.13561 0,0.20341 0,0.27121c0,0.0678 0,0.1356 0,0.2712c0,0.06781 0,0.13561 0,0.27121c0,0.1356 0,0.33901 0,0.40681c0,0.0678 0,0.2034 0,0.2712c0,0.0678 0,0.13561 0,0.20341c0,0.2034 0,0.2712 0,0.339c0,0.06781 0.0625,0.20341 0.0625,0.33901c0,0.1356 0.03084,0.19517 0.0625,0.40681c0.01001,0.06693 0,0.2034 0,0.40681c0,0.1356 0,0.2712 0,0.33901c0,0.0678 0,0.2034 0,0.2712c0,0.0678 0,0.1356 0,0.2034c0,0.06781 0,0.13561 0,0.20341c0,0.0678 0,0.1356 0,0.2034c0,0.0678 0,0.13561 0,0.20341c0,0.0678 0,0.1356 0,0.2034c0,0.0678 0,0.1356 0,0.20341c0,0.0678 0,0.1356 0,0.2034c0,0.0678 0,0.1356 0,0.2034c0,0.06781 0,0.13561 0.0625,0.13561c0.0625,0 0.125,0 0.1875,0c0.0625,0 0.125,0 0.1875,0c0.0625,0 0.125,0 0.25,0c0.0625,0 0.125,0 0.1875,0c0.0625,0 0.1875,0 0.25,0c0.0625,0 0.125,0 0.1875,0c0.0625,0 0.125,0 0.1875,0c0.0625,0 0.125,0 0.1875,0c0.0625,0 0.125,0 0.1875,0c0.0625,0 0.125,0 0.1875,0c0.0625,0 0.1875,0 0.25,-0.0678c0.0625,-0.06781 0.0625,-0.13561 0.0625,-0.27121c0,-0.0678 0,-0.1356 0,-0.2034c0,-0.13561 0,-0.20341 0,-0.27121c0,-0.0678 0,-0.2034 0,-0.27121c0,-0.0678 0.0625,-0.1356 0.0625,-0.2034c0,-0.0678 0,-0.1356 0,-0.2034c0,-0.06781 0,-0.13561 0,-0.20341c0,-0.0678 0.02868,-0.18262 0.0625,-0.2712c0.02392,-0.06264 0,-0.13561 0,-0.27121c0,-0.0678 0,-0.2034 0,-0.33901c0,-0.0678 0,-0.1356 0,-0.2712c0,-0.0678 0.0442,-0.15546 0,-0.20341c-0.04419,-0.04794 -0.1433,-0.04794 -0.1875,0c-0.08839,0.09589 -0.08849,0.32281 -0.1875,0.54242c-0.08683,0.1926 -0.125,0.339 -0.1875,0.54241c-0.0625,0.2034 -0.13689,0.39877 -0.25,0.61021c-0.07014,0.13113 -0.08413,0.31904 -0.1875,0.47461c-0.08171,0.12299 -0.09117,0.25042 -0.125,0.33901c-0.02392,0.06264 0,0.1356 0,0.2034c0,0.0678 0,0 0,-0.0678c0,-0.20341 0,-0.27121 0,-0.54241c0,-0.13561 -0.1222,-0.30844 -0.1875,-0.54241c-0.03622,-0.12979 -0.09289,-0.25926 -0.125,-0.40681c-0.02872,-0.13198 0,-0.27121 0,-0.33901c0,-0.0678 0,-0.1356 0,-0.2034c0,-0.13561 0,-0.20341 0,-0.40681c0,-0.1356 -0.01466,-0.34933 -0.0625,-0.47461c-0.03382,-0.08859 -0.09289,-0.12365 -0.125,-0.27121c-0.01436,-0.06599 -0.0625,-0.1356 -0.0625,-0.2712c0,-0.0678 -0.03084,-0.19517 -0.0625,-0.40681c-0.02002,-0.13385 0,-0.27121 0,-0.40681c0,-0.1356 0,-0.2034 0,-0.2712c0,-0.06781 0,0 0,0.0678c0,0.0678 0,0.2034 0,0.339c0,0.13561 0,0.33901 0,0.47461c0,0.20341 0,0.40681 0,0.61022c0,0.2034 0,0.339 0,0.47461c0,0.1356 0,0.2034 0,0.339c0,0.0678 0,0.20341 0,0.27121c0,0.1356 0,0.2712 0,0.40681c0,0.0678 0,0.1356 0,0.2034c0,0.0678 0,0.1356 0,0.33901c0,0.0678 0,0.1356 0,0.2034c0,0.0678 0,0.1356 0,0.20341c0,0.0678 -0.0183,0.15546 -0.0625,0.2034c-0.04419,0.04794 -0.13582,0.07779 -0.1875,0c-0.08171,-0.12299 -0.0625,-0.27121 -0.0625,-0.47461c0,-0.2034 0,-0.40681 0,-0.54241c0,-0.2034 0,-0.33901 0,-0.47461c0,-0.27121 0.09289,-0.39486 0.125,-0.54241c0.01436,-0.06599 0,-0.27121 0,-0.40681c0,-0.2034 0.0625,-0.33901 0.0625,-0.40681c0,-0.0678 0.0625,-0.1356 0.0625,-0.2034c0,-0.0678 0,-0.13561 0,-0.20341c0,-0.0678 0,-0.1356 0,-0.2034c0,-0.0678 0,-0.1356 0,-0.20341c0,-0.0678 0,-0.1356 0,-0.2034c0,-0.0678 0,-0.1356 0,-0.2034c0,-0.0678 -0.03858,-0.14077 -0.0625,-0.20341c-0.03382,-0.08858 -0.10108,-0.20856 -0.125,-0.2712c-0.03382,-0.08859 -0.15367,-0.11482 -0.1875,-0.20341c-0.02391,-0.06264 -0.02391,-0.14076 0,-0.2034c0.03383,-0.08859 0.125,-0.0678 0.1875,-0.0678c0.0625,0 0.125,0 0.1875,0c0.0625,0 0.125,0 0.1875,0c0.02084,0 1.60417,-0.375 0.0625,0" id="svg_3" fill-opacity="0" fill="none"/>
 </g>
</svg>