<svg width="24.000000" height="24.000000" viewBox="0 0 24 24" fill="none" xmlns="http://www.w3.org/2000/svg">
	<desc>
			Created with Pixso.
	</desc>
	<defs>
		<clipPath id="clip25_3669">
			<rect id="Frame" width="24.000000" height="24.000000" fill="white" fill-opacity="0"/>
		</clipPath>
	</defs>
	<rect id="Frame" width="24.000000" height="24.000000" fill="#FFFFFF" fill-opacity="0"/>
	<g clip-path="url(#clip25_3669)">
		<path id="Vector" d="M3.44043 21.2861C3.44043 21.4385 3.48584 21.5874 3.57031 21.7141C3.65479 21.8408 3.77539 21.9395 3.91602 21.9978C4.05664 22.0562 4.21191 22.0715 4.36133 22.0417C4.51074 22.012 4.64795 21.9385 4.75586 21.8308C4.86328 21.7231 4.93701 21.5859 4.96631 21.4363C4.99609 21.2869 4.98096 21.1321 4.92285 20.9912C4.86426 20.8503 4.76562 20.7302 4.63867 20.6455C4.51221 20.5608 4.36328 20.5156 4.21094 20.5156C4.00684 20.5159 3.81055 20.5972 3.6665 20.7415C3.52197 20.886 3.44043 21.0818 3.44043 21.2861ZM4.41895 21.2861C4.41895 21.3271 4.40674 21.3674 4.38379 21.4016C4.36084 21.4358 4.32861 21.4624 4.29053 21.4783C4.25244 21.4939 4.21045 21.498 4.17041 21.49C4.12988 21.4819 4.09277 21.4622 4.06396 21.4331C4.03467 21.4041 4.01514 21.3669 4.00684 21.3267C3.99902 21.2864 4.00293 21.2444 4.01855 21.2065C4.03467 21.1685 4.06104 21.136 4.09521 21.1133C4.12939 21.0903 4.16992 21.0781 4.21094 21.0781C4.26611 21.0784 4.31885 21.1001 4.35791 21.1392C4.39648 21.1782 4.41846 21.231 4.41846 21.2861L4.41895 21.2861Z" fill="#290247" fill-opacity="1.000000" fill-rule="nonzero"/>
		<path id="Vector" d="M21.1792 1.4209C21.1562 1.37402 21.1201 1.33472 21.0757 1.30713C21.0308 1.27979 20.9795 1.26538 20.9272 1.26562L8.29492 1.26562C8.24268 1.26538 8.19141 1.27979 8.14697 1.30713C8.10205 1.33472 8.06641 1.37402 8.04297 1.4209L6.39941 4.73999C6.35352 4.79175 6.32812 4.85864 6.32812 4.92798L6.32812 14.8928C6.07861 15.0437 5.86816 15.252 5.71533 15.5007C5.56299 15.7493 5.47168 16.0308 5.4502 16.3218C5.29297 16.4419 5.11572 16.5332 4.92676 16.5918L4.92578 16.5847C4.89795 16.4929 4.84131 16.4124 4.76465 16.355C4.6875 16.2974 4.59424 16.2661 4.49805 16.2656L1.56055 16.2656C1.49121 16.2659 1.42285 16.2822 1.36084 16.3132C1.29932 16.344 1.24512 16.3889 1.20361 16.4441C1.16162 16.4993 1.1333 16.5635 1.12012 16.6313C1.10742 16.6995 1.11035 16.7695 1.12891 16.8362L2.68066 22.4075C2.70752 22.5015 2.76416 22.5845 2.8418 22.6433C2.91992 22.7024 3.01465 22.7344 3.11279 22.7344L6.2207 22.7344C6.29102 22.7346 6.35986 22.7185 6.42236 22.6873C6.48486 22.656 6.53906 22.6104 6.58105 22.5542C6.62256 22.498 6.65039 22.4329 6.6626 22.364C6.67432 22.2952 6.66992 22.2244 6.64941 22.1575L6.24512 20.8308L7.71045 19.9048C7.89893 19.8008 8.12012 19.7725 8.3291 19.8254C8.3374 19.8274 8.3457 19.8293 8.35449 19.8306L10.9419 20.2307C11.6851 20.3457 12.4448 20.186 13.0791 19.781L18.146 16.5469L22.6069 16.5469C22.6777 16.5469 22.7461 16.5186 22.7964 16.4683C22.8467 16.418 22.875 16.3496 22.875 16.2786L22.875 5.02051C22.897 4.95166 22.8911 4.87695 22.8589 4.81226L21.1792 1.4209ZM14.9062 1.82812L20.7529 1.82812L22.146 4.64062L14.9062 4.64062L14.9062 1.82812ZM14.6108 5.21826C14.6421 5.21826 14.6724 5.21313 14.7017 5.20312L16.5938 5.20312L16.5938 7.21875L12.7969 7.21875L12.7969 5.20312L14.5205 5.20312C14.5498 5.21313 14.5801 5.21826 14.6108 5.21826ZM3.19922 22.1719L1.71094 16.8281L4.40625 16.8281L6.04688 22.1719L3.19922 22.1719ZM12.7764 19.3164C12.2568 19.646 11.6353 19.7751 11.0278 19.6794L8.45264 19.2788C8.10645 19.1943 7.74072 19.2444 7.42969 19.4185C7.42529 19.4209 7.4209 19.4231 7.4165 19.4255L6.07324 20.2744L5.09375 17.1235C5.39648 17.0273 5.67578 16.8687 5.91357 16.6575C5.94287 16.6331 5.9668 16.6025 5.98291 16.5681C5.99902 16.5337 6.00781 16.4958 6.00781 16.4578C6.0083 16.2903 6.0415 16.1243 6.10645 15.9697C6.1709 15.8152 6.26562 15.6748 6.38428 15.5566C6.50342 15.4387 6.64453 15.3455 6.7998 15.282C6.95459 15.2188 7.12109 15.1865 7.28857 15.1875L7.37646 15.1875C7.65039 15.186 7.9209 15.1235 8.16797 15.0044C8.41504 14.8853 8.63232 14.7126 8.8042 14.499L9.91846 13.1277C10.0259 12.9941 10.1797 12.9058 10.3491 12.8801C10.5186 12.8545 10.6914 12.8933 10.8335 12.9893L10.8525 13.0002C10.9976 13.0974 11.1021 13.2441 11.147 13.4128C11.1919 13.5815 11.1738 13.761 11.0962 13.9172C10.6509 14.8025 9.98877 16.1204 9.98877 16.1204C9.96729 16.1648 9.95703 16.2141 9.95898 16.2634C9.96094 16.313 9.97559 16.3611 10.0005 16.4038C10.0254 16.4458 10.0601 16.481 10.1021 16.5059C10.1436 16.531 10.1914 16.5449 10.2397 16.5469L17.1309 16.5469L12.7764 19.3164ZM12.9375 15.9844L12.9375 13.2983L13.1235 13.4932C13.1499 13.5205 13.1812 13.5422 13.2158 13.5574C13.2505 13.5725 13.2881 13.5803 13.3262 13.5806C13.3638 13.5808 13.4014 13.5732 13.436 13.5588C13.4712 13.5444 13.5029 13.5232 13.5293 13.4963L14.02 12.9963L14.5044 13.4954C14.5303 13.5225 14.5615 13.5439 14.5962 13.5586C14.6309 13.5732 14.6685 13.5808 14.7061 13.5808C14.7437 13.5808 14.7808 13.5732 14.8154 13.5586C14.8501 13.5439 14.8818 13.5225 14.9077 13.4954L15.3921 12.9966L15.8823 13.4963C15.9092 13.5232 15.9404 13.5447 15.9756 13.5591C16.0103 13.5735 16.0479 13.5811 16.0854 13.5808C16.1221 13.5803 16.1577 13.5723 16.1909 13.5574C16.2241 13.5422 16.2534 13.5203 16.2778 13.4932L16.4531 13.2983L16.4531 15.9844L12.9375 15.9844ZM22.3125 15.9844L17.0156 15.9844L17.0156 12.5935C17.0181 12.5381 17.0029 12.4832 16.9727 12.4365C16.9429 12.3896 16.8989 12.3533 16.8477 12.3323C16.7964 12.311 16.7397 12.3062 16.6855 12.3184C16.6313 12.3306 16.582 12.3589 16.5444 12.3999L16.0776 12.8943L15.5908 12.4045C15.5645 12.3789 15.5332 12.3589 15.499 12.3459C15.4644 12.3328 15.4277 12.3267 15.3911 12.3281L15.3906 12.3281C15.3535 12.3267 15.3164 12.3328 15.2817 12.3462C15.2476 12.3596 15.2158 12.3796 15.1895 12.4055L14.7065 12.8994L14.2236 12.4075C14.1973 12.3813 14.166 12.3608 14.1313 12.3472C14.0967 12.3335 14.0596 12.3271 14.0225 12.3281L14.022 12.3281C13.9849 12.3267 13.9482 12.3328 13.9136 12.3459C13.8794 12.3589 13.8477 12.3789 13.8213 12.4045L13.333 12.8982L12.8638 12.4019C12.8247 12.3606 12.7749 12.332 12.7197 12.3196C12.6646 12.3074 12.6069 12.3118 12.5547 12.3323C12.502 12.353 12.4565 12.3889 12.4248 12.4353C12.3926 12.4819 12.3755 12.5371 12.375 12.5935L12.375 15.9844L10.6958 15.9844C10.9272 15.5156 11.3091 14.7551 11.5986 14.179C11.7378 13.8994 11.7705 13.5786 11.6909 13.2769C11.6113 12.9749 11.4248 12.7119 11.166 12.5371L11.1475 12.5222C10.8896 12.3469 10.5752 12.2749 10.2671 12.3206C9.9585 12.3662 9.67871 12.5259 9.48242 12.7681L8.36816 14.144C8.24902 14.2927 8.09814 14.4131 7.92676 14.4963C7.75488 14.5796 7.56689 14.6235 7.37646 14.625L7.28857 14.625C7.15479 14.625 7.02148 14.6396 6.89062 14.6682L6.89062 5.20312L8.625 5.20312C8.69971 5.20312 8.77148 5.17358 8.82422 5.12085C8.87695 5.06812 8.90625 4.99658 8.90625 4.92188C8.90625 4.84717 8.87695 4.77563 8.82422 4.7229C8.77148 4.67017 8.69971 4.64062 8.625 4.64062L7.07617 4.64062L8.46973 1.82812L14.3438 1.82812L14.3438 4.64062L10.5 4.64062C10.4258 4.64062 10.354 4.67017 10.3013 4.7229C10.2485 4.77563 10.2188 4.84717 10.2188 4.92188C10.2188 4.99658 10.2485 5.06812 10.3013 5.12085C10.354 5.17358 10.4258 5.20312 10.5 5.20312L12.2344 5.20312L12.2344 7.48999C12.2339 7.56543 12.2632 7.63818 12.3154 7.69263C12.3677 7.74707 12.4395 7.77881 12.5146 7.78125L16.8975 7.78125C17.0527 7.78125 17.1562 7.64526 17.1562 7.48999L17.1562 5.20312L22.3125 5.20312L22.3125 15.9844Z" fill="#290247" fill-opacity="1.000000" fill-rule="nonzero"/>
		<path id="Vector" d="M8.25 6.27002C8.17529 6.27002 8.104 6.29956 8.05127 6.35229C7.99854 6.40503 7.96875 6.47656 7.96875 6.55127L7.96875 6.84668C7.96875 6.92114 7.99854 6.99268 8.05127 7.04541C8.104 7.09814 8.17529 7.12793 8.25 7.12793C8.32471 7.12793 8.396 7.09814 8.44873 7.04541C8.50146 6.99268 8.53125 6.92114 8.53125 6.84668L8.53125 6.55127C8.53125 6.47656 8.50146 6.40503 8.44873 6.35229C8.396 6.29956 8.32471 6.27002 8.25 6.27002ZM8.25 7.45581C8.17529 7.45581 8.104 7.48535 8.05127 7.53809C7.99854 7.59082 7.96875 7.66235 7.96875 7.73706L7.96875 10.8308C7.96875 10.9053 7.99854 10.9768 8.05127 11.0295C8.104 11.0823 8.17529 11.1121 8.25 11.1121C8.32471 11.1121 8.396 11.0823 8.44873 11.0295C8.50146 10.9768 8.53125 10.9053 8.53125 10.8308L8.53125 7.73706C8.53125 7.66235 8.50146 7.59082 8.44873 7.53809C8.396 7.48535 8.32471 7.45581 8.25 7.45581Z" fill="#290247" fill-opacity="1.000000" fill-rule="nonzero"/>
	</g>
</svg>
