<svg width="22.702759" height="22.703125" viewBox="0 0 22.7028 22.7031" fill="none" xmlns="http://www.w3.org/2000/svg">
	<desc>
			Created with Pixso.
	</desc>
	<defs/>
	<path id="Vector" d="M11.35 22.7C9.1 22.7 6.91 22.03 5.04 20.78C3.17 19.54 1.72 17.76 0.86 15.69C0 13.62 -0.22 11.33 0.21 9.13C0.65 6.93 1.73 4.91 3.32 3.32C4.91 1.73 6.93 0.65 9.13 0.21C11.33 -0.23 13.62 0 15.69 0.86C17.76 1.72 19.54 3.17 20.78 5.04C22.03 6.91 22.7 9.1 22.7 11.35C22.69 14.36 21.5 17.24 19.37 19.37C17.24 21.5 14.36 22.69 11.35 22.7ZM11.35 0.64C9.23 0.64 7.16 1.27 5.4 2.45C3.64 3.62 2.27 5.3 1.46 7.25C0.65 9.21 0.44 11.36 0.85 13.43C1.26 15.51 2.28 17.42 3.78 18.91C5.28 20.41 7.18 21.43 9.26 21.84C11.33 22.26 13.49 22.04 15.44 21.24C17.4 20.42 19.07 19.05 20.25 17.29C21.42 15.53 22.05 13.46 22.05 11.35C22.05 8.51 20.92 5.79 18.91 3.78C16.9 1.78 14.18 0.65 11.35 0.64Z" fill="#000000" fill-opacity="1.000000" fill-rule="nonzero"/>
	<path id="Vector" d="M11.35 12.97C10.58 12.97 9.82 12.74 9.18 12.31C8.54 11.89 8.05 11.28 7.75 10.57C7.46 9.85 7.38 9.07 7.53 8.32C7.68 7.56 8.05 6.87 8.59 6.33C9.14 5.78 9.83 5.41 10.59 5.26C11.34 5.11 12.12 5.19 12.84 5.48C13.55 5.78 14.15 6.27 14.58 6.91C15.01 7.55 15.24 8.31 15.24 9.08C15.24 10.11 14.83 11.1 14.1 11.83C13.37 12.56 12.38 12.97 11.35 12.97ZM11.35 5.83C10.71 5.83 10.08 6.02 9.54 6.38C9.01 6.74 8.6 7.24 8.35 7.83C8.1 8.43 8.04 9.08 8.17 9.71C8.29 10.34 8.6 10.92 9.05 11.37C9.51 11.82 10.08 12.13 10.71 12.26C11.34 12.38 11.99 12.32 12.59 12.07C13.18 11.83 13.69 11.41 14.04 10.88C14.4 10.34 14.59 9.72 14.59 9.08C14.59 8.22 14.25 7.39 13.64 6.78C13.03 6.18 12.21 5.83 11.35 5.83Z" fill="#000000" fill-opacity="1.000000" fill-rule="nonzero"/>
	<path id="Vector" d="M18.81 19.78L18.16 19.78C18.16 17.97 17.44 16.24 16.16 14.96C14.89 13.69 13.15 12.97 11.35 12.97C9.54 12.97 7.81 13.69 6.53 14.96C5.25 16.24 4.54 17.97 4.54 19.78L3.89 19.78C3.89 17.8 4.67 15.9 6.07 14.5C7.47 13.1 9.37 12.32 11.35 12.32C13.32 12.32 15.22 13.1 16.62 14.5C18.02 15.9 18.81 17.8 18.81 19.78Z" fill="#000000" fill-opacity="1.000000" fill-rule="nonzero"/>
</svg>
