<svg width="16.000000" height="12.000000" viewBox="0 0 16 12" fill="none" xmlns="http://www.w3.org/2000/svg">
	<desc>
			Created with Pixso.
	</desc>
	<defs/>
	<path id="Vector" d="M7.33 3.33L7.33 1C7.33 0.44 6.88 0 6.33 0C6.08 0 5.84 0.09 5.66 0.26L5.22 0.66C3.81 1.97 1.44 4.16 0.23 5.38C0.08 5.53 0 5.75 0 6C0 6.24 0.08 6.46 0.23 6.61C1.44 7.83 3.81 10.02 5.22 11.33L5.66 11.73C5.84 11.9 6.08 12 6.33 12C6.88 12 7.33 11.55 7.33 11L7.33 8.66C12.13 8.73 15.33 10.25 15.33 11.66C15.33 11.71 15.34 11.75 15.35 11.79C15.37 11.83 15.39 11.87 15.43 11.9C15.46 11.93 15.49 11.95 15.53 11.97C15.57 11.99 15.62 12 15.66 12C15.71 12 15.75 11.99 15.79 11.97C15.83 11.95 15.87 11.93 15.9 11.9C15.93 11.87 15.95 11.83 15.97 11.79C15.99 11.75 16 11.71 16 11.66C16 7.17 12.14 3.5 7.33 3.33ZM7 8C6.95 8 6.91 8 6.87 8.02C6.83 8.04 6.79 8.06 6.76 8.09C6.73 8.12 6.7 8.16 6.69 8.2C6.67 8.24 6.66 8.28 6.66 8.33L6.66 11C6.66 11.18 6.51 11.33 6.33 11.33C6.23 11.33 6.15 11.28 6.11 11.24L5.68 10.84C4.27 9.53 1.9 7.35 0.7 6.14C0.68 6.12 0.66 6.07 0.66 6C0.66 5.92 0.68 5.87 0.7 5.85C1.9 4.64 4.27 2.46 5.68 1.15L6.11 0.75C6.15 0.71 6.23 0.66 6.33 0.66C6.51 0.66 6.66 0.81 6.66 1L6.66 3.66C6.66 3.71 6.67 3.75 6.69 3.79C6.7 3.83 6.73 3.87 6.76 3.9C6.79 3.93 6.83 3.95 6.87 3.97C6.91 3.99 6.95 4 7 4C11 4 14.36 6.61 15.15 10.09C13.73 8.84 10.65 8 7 8Z" fill="#110C1F" fill-opacity="1.000000" fill-rule="nonzero"/>
</svg>
