<svg width="19.500000" height="19.500000" viewBox="0 0 19.5 19.5" fill="none" xmlns="http://www.w3.org/2000/svg">
	<desc>
			Created with Pixso.
	</desc>
	<defs/>
	<path id="Search Small" d="M7.67 15.35C3.43 15.35 0 11.91 0 7.67C0 3.43 3.43 0 7.67 0C11.91 0 15.35 3.43 15.35 7.67C15.35 9.48 14.73 11.14 13.68 12.45C13.72 12.48 13.77 12.5 13.81 12.54C13.84 12.56 13.87 12.59 13.9 12.62L19.23 17.95C19.58 18.3 19.58 18.88 19.23 19.23C18.87 19.58 18.3 19.58 17.95 19.23L12.62 13.9C12.55 13.83 12.5 13.76 12.45 13.68C11.14 14.73 9.48 15.35 7.67 15.35ZM13.96 7.67C13.96 11.14 11.14 13.96 7.67 13.96C4.2 13.96 1.39 11.14 1.39 7.67C1.39 4.2 4.2 1.39 7.67 1.39C11.14 1.39 13.96 4.2 13.96 7.67Z" fill="#303030" fill-opacity="1.000000" fill-rule="evenodd"/>
</svg>
