<svg width="13.000000" height="13.000000" viewBox="0 0 13 13" fill="none" xmlns="http://www.w3.org/2000/svg">
	<desc>
			Created with Pixso.
	</desc>
	<defs/>
	<path id="Search Small" d="M5.11871 10.2373C2.29169 10.2373 0 7.9458 0 5.11865C0 2.29175 2.29169 0 5.11871 0C7.94574 0 10.2374 2.29175 10.2374 5.11865C10.2374 6.32373 9.82092 7.43213 9.12396 8.30664C9.15326 8.32202 9.18152 8.34009 9.20844 8.3606C9.22961 8.37646 9.24982 8.39429 9.2691 8.41382L12.8228 11.9675C13.0591 12.2036 13.0591 12.5869 12.8228 12.823C12.5866 13.0591 12.2035 13.0591 11.9673 12.823L8.41364 9.26953C8.36969 9.22534 8.3338 9.17627 8.30621 9.12402C7.43164 9.82104 6.32385 10.2373 5.11871 10.2373ZM9.30676 5.11865C9.30676 7.43164 7.43164 9.30664 5.11871 9.30664C2.80579 9.30664 0.930664 7.43164 0.930664 5.11865C0.930664 2.80566 2.80579 0.930664 5.11871 0.930664C7.43164 0.930664 9.30676 2.80566 9.30676 5.11865Z" fill="#303030" fill-opacity="1.000000" fill-rule="evenodd"/>
</svg>
