<svg width="23.343750" height="14.251465" viewBox="0 0 23.3438 14.2515" fill="none" xmlns="http://www.w3.org/2000/svg">
	<desc>
			Created with Pixso.
	</desc>
	<defs/>
	<path id="Vector" d="M23.2812 6.06909L20.8667 3.4397C20.752 3.31567 20.6133 3.2168 20.459 3.14917C20.3042 3.08154 20.1372 3.04663 19.9688 3.04688L15.6436 3.04688C15.6074 3.04663 15.5718 3.05396 15.5386 3.06787C15.5054 3.08179 15.4751 3.10254 15.4502 3.12842C15.4248 3.1543 15.4053 3.18506 15.3926 3.21875C15.3794 3.25244 15.3735 3.28833 15.375 3.32446L15.375 7.78125L14.5312 7.78125L14.5312 1.68311C14.5312 1.46191 14.4873 1.24268 14.4023 1.03857C14.3179 0.834229 14.1934 0.648438 14.0366 0.492188C13.8804 0.335938 13.6943 0.212158 13.4897 0.127686C13.2856 0.0432129 13.0664 -0.000244141 12.8452 0L1.67578 0C1.45508 0 1.23682 0.043457 1.03271 0.128174C0.829102 0.212891 0.644043 0.336914 0.488281 0.493408C0.33252 0.649658 0.208984 0.835449 0.125488 1.03955C0.0415039 1.24365 -0.000976562 1.4624 0 1.68311L0 12.3328C0 12.4062 0.0292969 12.4766 0.0810547 12.5283C0.132812 12.5801 0.203125 12.6094 0.276367 12.6094L2.14111 12.6094C2.2085 13.0657 2.4375 13.4827 2.78662 13.7842C3.13574 14.0854 3.58154 14.2515 4.04248 14.2515C4.50391 14.2515 4.94971 14.0854 5.29883 13.7842C5.64795 13.4827 5.87695 13.0657 5.94434 12.6094L17.4233 12.6094C17.4907 13.0652 17.7197 13.4817 18.0688 13.7827C18.418 14.084 18.8633 14.2495 19.3242 14.2495C19.7852 14.2495 20.2305 14.084 20.5796 13.7827C20.9287 13.4817 21.1577 13.0652 21.2256 12.6094L22.1367 12.6094C22.2959 12.6094 22.4536 12.5781 22.6006 12.5171C22.7476 12.4561 22.8809 12.3665 22.9932 12.2537C23.105 12.1406 23.1938 12.0068 23.2539 11.8594C23.3145 11.7122 23.3447 11.5544 23.3438 11.3953L23.3438 6.25928C23.3457 6.18945 23.3213 6.12158 23.2754 6.06934L23.2812 6.06909ZM11.6719 0.5625L12.8452 0.5625C12.9927 0.562256 13.1387 0.591064 13.2749 0.647217C13.4111 0.703369 13.5352 0.785645 13.6392 0.889893C13.7437 0.993896 13.8267 1.11743 13.8828 1.25366C13.9395 1.38965 13.9688 1.53564 13.9688 1.68311L13.9688 7.78125L11.6719 7.78125L11.6719 0.5625ZM8.85938 0.5625L11.1094 0.5625L11.1094 7.78125L8.85938 7.78125L8.85938 0.5625ZM6.04688 0.5625L8.29688 0.5625L8.29688 7.78125L6.04688 7.78125L6.04688 0.5625ZM3.23438 0.5625L5.48438 0.5625L5.48438 7.78125L3.23438 7.78125L3.23438 0.5625ZM0.5625 1.68311C0.561523 1.53613 0.589355 1.39062 0.64502 1.25464C0.700684 1.11865 0.782227 0.995117 0.885742 0.890869C0.989258 0.786865 1.1123 0.704102 1.24805 0.647705C1.38379 0.591309 1.52881 0.5625 1.67578 0.5625L2.67188 0.5625L2.67188 7.78125L0.5625 7.78125L0.5625 1.68311ZM4.04297 13.6921C3.77393 13.6921 3.51123 13.6125 3.2876 13.4631C3.06396 13.3137 2.89014 13.1013 2.78711 12.853C2.68408 12.6047 2.65723 12.3313 2.70996 12.0676C2.76221 11.804 2.8916 11.5618 3.08154 11.3716C3.27197 11.1814 3.51416 11.052 3.77783 10.9995C4.0415 10.947 4.31494 10.9741 4.56299 11.0769C4.81152 11.1797 5.02393 11.354 5.17334 11.5776C5.32275 11.801 5.40234 12.064 5.40234 12.3328C5.40186 12.6931 5.25879 13.0388 5.00391 13.2937C4.74902 13.5483 4.40332 13.6919 4.04297 13.6921ZM15.375 9.42188L12.7969 9.42188C12.7222 9.42188 12.6509 9.45142 12.5981 9.50415C12.5454 9.55688 12.5156 9.62842 12.5156 9.70312C12.5156 9.77783 12.5454 9.84937 12.5981 9.9021C12.6509 9.95483 12.7222 9.98438 12.7969 9.98438L15.375 9.98438L15.375 12.0469L5.94434 12.0469C5.87598 11.5913 5.64697 11.1755 5.29785 10.875C4.94922 10.5742 4.50391 10.4089 4.04346 10.4089C3.58301 10.4089 3.1377 10.5742 2.78857 10.875C2.43994 11.1755 2.21045 11.5913 2.14258 12.0469L0.5625 12.0469L0.5625 9.98438L10.9219 9.98438C10.9966 9.98438 11.0679 9.95483 11.1206 9.9021C11.1733 9.84937 11.2031 9.77783 11.2031 9.70312C11.2031 9.62842 11.1733 9.55688 11.1206 9.50415C11.0679 9.45142 10.9966 9.42188 10.9219 9.42188L0.5625 9.42188L0.5625 8.34375L15.375 8.34375L15.375 9.42188ZM19.4062 3.60938L19.9688 3.60938C20.0601 3.61108 20.1504 3.63184 20.2334 3.66992C20.3169 3.70801 20.3911 3.76294 20.4521 3.83105L22.4346 6L19.4062 6L19.4062 3.60938ZM18.2812 3.60938L18.8438 3.60938L18.8438 6L18.2812 6L18.2812 3.60938ZM15.9375 3.60938L17.7188 3.60938L17.7188 6L15.9375 6L15.9375 3.60938ZM19.3242 13.6921C19.0552 13.6921 18.7925 13.6125 18.5688 13.4631C18.3457 13.3137 18.1714 13.1013 18.0684 12.853C17.9653 12.6047 17.9385 12.3313 17.9912 12.0676C18.0435 11.804 18.1729 11.5618 18.3628 11.3716C18.5532 11.1814 18.7954 11.052 19.0591 10.9995C19.3228 10.947 19.5962 10.9741 19.8442 11.0769C20.0928 11.1797 20.3052 11.354 20.4546 11.5776C20.604 11.801 20.6836 12.064 20.6836 12.3328C20.6831 12.6931 20.54 13.0388 20.2852 13.2937C20.0303 13.5483 19.6846 13.6919 19.3242 13.6921ZM22.7812 8.71875L21.9844 8.71875L21.9844 7.82812L22.7812 7.82812L22.7812 8.71875ZM22.7812 7.26562L21.9102 7.26562C21.7822 7.26855 21.6606 7.32031 21.5698 7.41064C21.4785 7.50073 21.4258 7.62207 21.4219 7.75L21.4219 8.79004C21.4258 8.9187 21.478 9.04102 21.5688 9.13232C21.6597 9.22363 21.7817 9.27686 21.9102 9.28125L22.7812 9.28125L22.7812 11.3953C22.7822 11.4805 22.7666 11.5652 22.7344 11.6443C22.7026 11.7234 22.6553 11.7954 22.5952 11.856C22.5352 11.9165 22.4639 11.9648 22.3853 11.9976C22.3066 12.0303 22.2222 12.0471 22.1367 12.0469L21.2256 12.0469C21.1577 11.5911 20.9287 11.1746 20.5796 10.8735C20.2305 10.5723 19.7852 10.4067 19.3242 10.4067C18.8633 10.4067 18.418 10.5723 18.0688 10.8735C17.7197 11.1746 17.4907 11.5911 17.4233 12.0469L15.9375 12.0469L15.9375 6.5625L22.7812 6.5625L22.7812 7.26562Z" fill="#290247" fill-opacity="1.000000" fill-rule="nonzero"/>
</svg>
