<svg width="32.000000" height="32.000000" viewBox="0 0 32 32" fill="none" xmlns="http://www.w3.org/2000/svg">
	<desc>
			Created with Pixso.
	</desc>
	<defs>
		<clipPath id="clip46_310">
			<rect id="Frame" width="32.000000" height="32.000000" fill="white" fill-opacity="0"/>
		</clipPath>
	</defs>
	<rect id="Frame" width="32.000000" height="32.000000" fill="#FFFFFF" fill-opacity="0"/>
	<g clip-path="url(#clip46_310)">
		<path id="_x30_4.Twitter" d="M28.768 8.06396C27.808 8.47998 26.816 8.76807 25.76 8.896C26.848 8.25586 27.68 7.23193 28.064 5.98389C27.04 6.59229 25.92 7.0083 24.736 7.26416C23.776 6.24023 22.4 5.6001 20.896 5.6001C17.984 5.6001 15.648 7.96826 15.648 10.8481C15.648 11.2642 15.68 11.6479 15.776 12.0322C11.424 11.8403 7.58397 9.72803 4.99197 6.56006C3.13597 9.88818 5.21597 12.6401 6.59196 13.5679C5.75996 13.5679 4.92796 13.312 4.22397 12.9282C4.22397 15.52 6.04797 17.6641 8.41597 18.144C7.90396 18.3042 6.75197 18.3999 6.04797 18.2402C6.71997 20.3203 8.67197 21.856 10.944 21.8882C9.15196 23.2959 6.52797 24.416 3.16797 24.064C5.50397 25.5679 8.25597 26.4321 11.232 26.4321C20.896 26.4321 26.144 18.4321 26.144 11.52C26.144 11.2959 26.144 11.0723 26.112 10.8481C27.2 10.0483 28.096 9.12012 28.768 8.06396Z" fill="#290247" fill-opacity="1.000000" fill-rule="nonzero"/>
	</g>
</svg>
